<svg width="286" height="346" viewBox="0 0 286 346" fill="none" xmlns="http://www.w3.org/2000/svg">
<g clip-path="url(#clip0_14_3)">
<mask id="mask0_14_3" style="mask-type:luminance" maskUnits="userSpaceOnUse" x="-1" y="2" width="287" height="344">
<path d="M286 2H-1V345.884H286V2Z" fill="white"/>
</mask>
<g mask="url(#mask0_14_3)">
<path fill-rule="evenodd" clip-rule="evenodd" d="M203.505 64.5268C205.158 68.3887 207.401 70.3626 207.603 81.6687C207.853 95.7249 200.078 110.259 200.078 110.259C200.078 110.259 201.351 97.2808 199.339 84.1315C197.593 72.7134 191.681 65.3924 191.681 65.3924C191.681 65.3924 198.981 63.5491 203.505 64.5268Z" fill="#602852"/>
<path fill-rule="evenodd" clip-rule="evenodd" d="M171.414 192.144C171.963 191.495 173.217 190.983 173.937 191.293C177.11 192.644 172.564 215.801 170.951 215.801C170.563 215.801 171.216 211.532 170.548 207.775C170.086 205.181 170.186 193.592 171.411 192.144H171.414Z" fill="#F25B0F"/>
<path fill-rule="evenodd" clip-rule="evenodd" d="M113.567 80.9859C112.966 83.1725 112.276 88.3778 108.92 95.1838C105.935 101.247 102.288 101.37 102.191 106.464C102.023 115.08 101.93 123.848 99.3246 123.971C95.5624 124.151 92.069 113.852 88.6763 111.8C87.0304 110.803 82.0365 105.523 77.5578 108.3C69.6602 113.195 72.9558 122.789 73.5269 125.315C75.6767 134.807 84.8246 146.725 88.9339 148.688C89.9602 149.177 92.6736 151.151 95.1594 151.016C98.4102 150.841 100.758 149.405 100.758 149.405L101.116 167.091L99.3246 185.494C99.3246 185.494 101.497 198.674 113.298 209.942C118.52 214.931 123.118 230.148 134.08 232.331C135.797 232.674 153.891 249.286 157.37 248.809C159.893 248.462 166.174 233.969 169.731 229.465C171.888 226.73 170.63 218.409 170.985 216.032C171.784 210.707 169.854 204.226 170.806 198.48C171.209 196.043 170.836 192.379 171.444 192.162C173.348 191.487 174.96 191.006 176.18 190.599C183.167 188.271 200.209 159.129 202.784 140.36C203.684 133.811 207.174 125.136 200.903 107.941C199.974 105.393 200.776 102.975 200.545 98.807C199.664 82.9486 199.25 81.068 197.992 76.956C197.671 75.9038 195.618 69.732 192.349 65.6723C177.427 47.1497 118.665 62.3738 113.567 80.9859Z" fill="#FDA245"/>
<path d="M77.9235 125.983C76.5202 124.012 75.8185 121.412 76.3373 118.997C76.8897 116.83 78.1997 114.274 80.6854 113.938C83.6974 113.803 85.3434 117.359 86.7504 119.471C89.1764 123.486 91.7779 127.501 93.1252 132.046C93.5432 133.58 94.9279 137.807 92.696 138.479C92.2892 138.554 92.0764 138.464 91.9346 138.423C91.3524 138.199 91.0053 137.897 90.5649 137.576C89.6243 136.845 88.7286 136.143 87.8216 135.348C86.8736 134.505 85.8845 133.587 85.4553 132.304C84.6417 129.8 86.1383 127.199 87.941 125.583L88.0829 125.707C86.9856 127.505 85.948 129.736 86.8251 131.77C87.2692 132.673 88.1463 133.319 88.9637 133.945C89.5422 134.341 92.0279 136.236 92.584 136.524C92.584 136.531 92.5131 136.472 92.2519 136.524C92.1735 136.542 92.0914 136.576 92.0205 136.613C91.957 136.662 91.901 136.714 91.8749 136.763C91.9719 136.453 91.957 136.132 91.9495 135.766C91.8189 133.598 91.1359 131.337 90.4902 129.225C89.4825 125.93 88.2396 122.639 86.2428 119.8C85.265 118.412 84.1453 117.083 82.7531 116.147C81.4468 115.203 80.2562 115.393 79.241 116.624C77.0166 119.184 77.0128 122.785 78.0803 125.897L77.9123 125.983H77.9235Z" fill="#F18700"/>
<path fill-rule="evenodd" clip-rule="evenodd" d="M100.679 180.054C100.679 180.054 102.43 186.752 103.55 189.789C104.99 193.689 109.092 198.774 109.092 198.774C109.092 198.774 111.126 187.446 112.537 186.573C113.743 185.827 119.815 192.614 132.468 199.737C138.271 203.006 144.441 206.148 152.532 205.827C159.295 205.558 167.984 200.767 168.298 198.304C168.581 196.069 170.183 192.584 170.183 192.584C170.183 192.584 162.856 195.17 143.844 188.185C132.509 184.021 125.369 178.912 121.002 175.916C105.416 165.214 100.579 146.811 100.579 146.811C100.579 146.811 100.81 155.677 100.78 168.841C100.765 175.617 100.679 180.058 100.679 180.058V180.054Z" fill="#F97E48"/>
<path fill-rule="evenodd" clip-rule="evenodd" d="M67.6149 99.8816C67.6149 99.8816 77.6287 93.9152 87.4111 90.2547C104.878 83.7173 113.813 80.7844 113.813 80.7844C113.813 80.7844 113.186 87.583 109.536 94.598C105.964 101.467 102.728 106.061 102.728 106.061C102.728 106.061 102.93 123.55 99.9516 124.061C96.8165 124.598 94.0396 115.464 88.486 110.986C87.3439 110.065 82.0552 105.785 77.7369 107.941C71.8249 110.897 72.9334 118.796 72.9894 121.822C73.1685 131.315 83.5369 144.218 87.3215 147.434C92.2668 151.64 94.8607 151.378 96.4582 151.017C98.8058 150.483 100.758 149.405 100.758 149.405L100.937 171.076L98.6976 174.614C98.6976 174.614 93.7224 182.976 84.9589 194.998C84.7313 195.312 83.3316 198.092 82.4732 196.913C82.2567 200.543 78.3527 199.185 77.289 199.375C74.501 199.872 64.7298 186.741 67.6149 173.584C71.4666 156.031 84.0968 149.763 84.0968 149.763C84.0968 149.763 68.5965 138.028 65.1067 124.688C63.584 118.867 64.9276 110.628 66.0025 106.598C67.2678 101.852 67.6149 99.8816 67.6149 99.8816Z" fill="#602852"/>
<path fill-rule="evenodd" clip-rule="evenodd" d="M198.339 77.5941L195.518 70.2731L192.192 65.1462C192.192 65.1462 175.52 66.2843 152.432 70.6985C134.337 74.1575 113.623 80.6165 113.623 80.6165C113.623 80.6165 113.328 83.624 112.279 86.93C110.66 92.0383 109.615 94.4301 109.615 94.4301C109.615 94.4301 129.769 85.7434 154.761 80.818C177.864 76.2657 198.339 77.5941 198.339 77.5941Z" fill="#F97E48"/>
<path fill-rule="evenodd" clip-rule="evenodd" d="M67.2566 99.1652C67.2566 99.1652 68.0627 100.598 65.8234 108.031C63.2518 116.565 65.4427 121.124 65.8234 123.971C67.1222 133.643 85.4404 149.942 85.4404 149.942C85.6606 148.946 76.5575 156.296 72.452 162.3C70.8321 164.67 24.5104 162.528 20.5691 143.136C16.0306 120.803 67.2566 99.1652 67.2566 99.1652Z" fill="#846A21"/>
<path fill-rule="evenodd" clip-rule="evenodd" d="M269.07 85.8218C268.76 111.613 203.053 140.36 203.053 140.36C203.053 140.36 204.016 134.218 203.68 125.315C203.363 116.893 201.739 116.15 200.881 109.195C200.567 106.639 206.457 95.0234 207.196 84.3441C207.976 73.0791 203.736 65.4148 203.736 65.4148C203.736 65.4148 269.339 63.5118 269.07 85.8218Z" fill="#846A21"/>
<path fill-rule="evenodd" clip-rule="evenodd" d="M253.574 67.732C240.585 62.4484 214.116 54.1199 196.111 52.911L196.066 52.1498C194.973 49.5975 193.401 45.9893 191.419 41.687C191.028 40.8325 189.781 38.1272 188.587 35.6496C183.507 25.1308 181.406 19.4032 176.539 15.2539C174.072 13.1494 168.835 6.47765 156.653 5.58211C138.417 4.24255 122.857 6.34331 107.745 11.8508C96.029 16.1195 85.0709 22.8771 79.2597 28.3286C72.2168 34.9332 70.1454 42.7765 68.3315 47.8512C64.364 58.9633 67.0774 87.9711 67.0774 87.9711C67.0774 87.9711 67.223 88.3069 66.5848 88.777C51.4241 99.9451 42.53 105.512 33.397 115.195C15.9298 133.71 20.4981 141.524 20.4981 141.524C20.4981 141.524 19.8562 134.748 31.6951 122.449C43.743 109.934 86.7392 88.6427 116.344 80.2695C171.269 64.7357 204.005 63.1088 224.999 65.6723C266.786 70.7768 268.801 83.6725 268.801 83.6725C268.801 83.6725 269.025 74.0157 253.574 67.732Z" fill="#FFF6A0"/>
<path fill-rule="evenodd" clip-rule="evenodd" d="M134.08 42.8363C90.5462 53.0453 66.5139 79.915 66.5139 79.915L67.0364 88.2882C67.0364 88.2882 102.191 65.4037 142.679 56.0901C169.212 49.9856 196.096 52.6461 196.096 52.6461L191.423 41.687C191.423 41.687 170.336 34.3362 134.084 42.8363H134.08Z" fill="#846A21"/>
<path fill-rule="evenodd" clip-rule="evenodd" d="M115.56 102.009C115.56 102.009 121.342 95.4749 131.482 94.1502C141.369 92.8592 150.715 96.0868 151.905 95.2249C153.189 94.292 152.376 92.2286 152.309 92.0009C150.864 87.0793 139.701 86.9113 138.603 86.8964C136.345 86.8628 130.702 86.9822 124.495 90.8591C120.196 93.5457 115.56 102.009 115.56 102.009Z" fill="#602852"/>
<path fill-rule="evenodd" clip-rule="evenodd" d="M199.112 92.0009C199.112 92.0009 196.331 82.5456 188.99 82.9561C177.793 83.5829 172.15 90.389 170.537 94.598C169.149 98.2249 169.067 102.997 169.104 104.986C169.257 113.057 173.172 120.781 174.926 124.24C176.871 128.08 177.796 130.662 177.972 134.449C178.099 137.169 175.718 138.71 174.837 138.748C170.716 138.927 164.536 139.643 157.459 138.569C156.616 138.442 156.201 136.986 156.115 137.046C155.981 137.139 155.399 139.912 159.43 141.882C162.983 143.621 166.066 144.569 167.492 144.569C169.552 144.569 180.48 140.807 181.555 137.046C181.872 135.942 182.141 134.472 180.122 127.307C179.674 125.718 174.837 118.777 172.597 111.792C171.709 109.024 170.787 102.662 172.59 96.8331C173.583 93.6129 181.428 90.3106 186.213 89.583C193.043 88.5419 199.112 92.0009 199.112 92.0009Z" fill="#602852"/>
<path fill-rule="evenodd" clip-rule="evenodd" d="M196.38 108.121C196.38 108.121 193.222 100.102 185.698 100.579C177.972 101.068 173.874 110.135 173.874 110.135C173.874 110.135 176.076 108.464 179.495 107.15C179.812 109.818 181.984 111.882 184.623 111.882C187.478 111.882 189.796 109.46 189.796 106.475C189.796 106.273 189.785 106.079 189.762 105.882C193.345 106.527 196.38 108.121 196.38 108.121Z" fill="#602852"/>
<path fill-rule="evenodd" clip-rule="evenodd" d="M150.472 111.703C150.472 111.703 145.814 102.21 137.036 104.001C125.727 106.307 124.137 115.195 124.137 115.195C124.137 115.195 128.284 112.833 132.344 110.848C132.344 110.93 132.333 111.012 132.333 111.098C132.333 114.15 134.811 116.628 137.864 116.628C140.918 116.628 143.396 114.15 143.396 111.098C143.396 110.132 143.146 109.225 142.713 108.434C146.635 109.3 150.472 111.703 150.472 111.703Z" fill="#602852"/>
<path d="M115.269 112.777C117.322 113.434 119.606 114.438 121.618 115.18C122.319 115.456 123.032 115.725 123.779 116.091C122.984 116.344 122.166 116.389 121.36 116.326C118.964 116.094 116.545 114.882 115.269 112.777Z" fill="#F18700"/>
<path d="M122.984 117.356C121.069 118.083 118.785 118.662 116.844 119.274C116.157 119.471 115.467 119.684 114.687 119.841C115.12 119.169 115.702 118.647 116.34 118.218C118.262 116.964 120.812 116.464 122.984 117.356Z" fill="#F18700"/>
<path d="M144.919 139.822C142.549 143.718 138.208 146.349 134.028 147.957C131.172 149.218 131.034 155.834 130.676 158.718C130.374 157.647 130.209 156.55 130.094 155.446C129.84 152.147 130.004 147.386 133.744 146.069C137.711 144.501 141.586 142.531 144.922 139.826L144.919 139.822Z" fill="#F18700"/>
<path d="M187.915 143.382C191.233 144.684 192.789 149.24 191.005 152.315C190.729 150.677 190.494 149.192 189.96 147.673C189.449 146.147 188.725 144.837 187.915 143.382Z" fill="#F18700"/>
<path fill-rule="evenodd" clip-rule="evenodd" d="M140.753 152.987C140.753 152.987 150.267 156.931 164.67 155.539C177.091 154.337 184.959 150.703 184.959 150.703C184.959 150.703 179.502 163.061 169.373 165.614C154.753 169.297 140.753 152.987 140.753 152.987Z" fill="white"/>
<path d="M140.664 152.92C140.701 152.908 140.776 152.882 140.847 152.897C140.925 152.916 140.932 152.92 140.966 152.927C141.067 152.957 141.369 153.031 141.477 153.058C147.591 154.49 153.91 155.009 160.176 154.796C168.835 154.446 177.882 153.811 185.769 149.871L185.339 150.864C179.409 164.539 168.07 171.845 153.828 164.352C148.808 161.685 144.422 157.864 140.932 153.401L140.802 153.229L140.738 153.143L140.697 153.087C140.66 153.039 140.656 152.949 140.667 152.916L140.664 152.92ZM140.847 153.05C140.884 153.043 140.903 152.983 140.888 152.961C140.88 152.946 140.906 152.979 140.917 152.983L140.996 153.058C142.619 154.546 144.336 155.961 146.098 157.274C152.607 162.084 160.721 166.311 168.996 164.517C173.836 163.408 177.733 159.935 180.861 156.162C182.272 154.42 183.57 152.528 184.586 150.531L185.134 151.072C183.358 151.796 181.57 152.367 179.752 152.934C169.22 156.255 159.859 158.106 148.837 155.774C146.165 155.184 143.508 154.431 141.037 153.244L140.876 153.166C140.854 153.151 140.806 153.14 140.832 153.132C140.847 153.125 140.865 153.08 140.85 153.046L140.847 153.05Z" fill="#D23A27"/>
<path fill-rule="evenodd" clip-rule="evenodd" d="M84.358 193.774C84.358 193.774 80.8608 198.763 78.3565 199.954C68.6562 204.566 37.775 220.965 26.2235 231.476C0.343649 255.025 6.8752 345.925 6.8752 345.925H128.877C128.877 345.925 131.116 289.014 99.138 220.909C98.4176 219.375 92.1996 216.73 88.0306 210.073C82.9024 201.883 84.358 193.774 84.358 193.774Z" fill="#843169"/>
<path d="M35.8977 232.148C53.6299 237.517 62.9943 257.589 69.4997 273.495C70.0595 275.033 70.6194 276.801 71.0075 278.398C71.3211 279.484 71.6644 281.204 71.922 282.316C75.9902 303.119 77.4831 324.287 79.0283 345.388C74.9265 323.787 72.9894 301.563 68.3763 280.07C68.2232 279.481 67.8015 277.876 67.641 277.264C67.279 276.074 66.8684 274.805 66.4131 273.648C60.0383 257.887 52.4468 239.443 35.8977 232.148Z" fill="#662A55"/>
<path fill-rule="evenodd" clip-rule="evenodd" d="M205.584 344.851L281.096 345.119C281.096 345.119 265.241 261.029 253.417 243.566C250.857 239.786 248.849 229.54 231.919 219.387C219.89 212.17 187.848 200.312 187.848 200.312C187.848 200.312 189.613 205.469 188.654 213.476C188.191 217.338 186.773 220.73 186.773 220.73C186.773 220.73 196.089 256.659 202.493 287.357C210.958 327.925 205.584 344.851 205.584 344.851Z" fill="#843169"/>
<path d="M237.711 244.372C237.849 261.275 239.376 278.01 243.258 294.455C247.363 310.977 247.811 328.597 243.623 345.119C244.474 336.683 244.732 328.257 244.224 319.891C243.948 315.731 243.519 311.537 242.862 307.425C241.884 301.231 240.216 295.059 239.044 288.85C236.293 274.23 235.756 259.103 237.711 244.368V244.372Z" fill="#662A55"/>
<path fill-rule="evenodd" clip-rule="evenodd" d="M108.237 221.226C106.539 227.883 111.115 235.428 120.33 250.241C132.068 269.111 147.27 293.54 162.251 290.943C168.078 289.932 171.504 285.245 176.763 278.048C188.881 261.465 188.952 243.129 188.855 232.913C188.717 218.566 188.646 211.394 184.018 205.913C168.223 187.207 113.806 199.371 108.237 221.226Z" fill="#FDA245"/>
<path fill-rule="evenodd" clip-rule="evenodd" d="M99.444 221.495C99.444 221.495 101.023 222.73 106.431 226.062C109.085 227.696 111.402 228.883 111.402 228.883L163.67 287.585L177.375 254.003L185.974 211.823C185.974 211.823 202.467 250.835 209.891 313.376C211.772 329.227 208.01 345.884 208.01 345.884H129.004C129.004 345.884 130.348 321.974 121.211 285.436C112.899 252.193 99.444 221.495 99.444 221.495Z" fill="#F25B0F"/>
<path fill-rule="evenodd" clip-rule="evenodd" d="M99.0223 171.703C98.817 175.864 99.4366 179.845 100.888 183.644C102.934 189.461 106.293 194.435 110.966 198.569C121.091 208.487 132.538 216.569 145.303 222.823C147.886 222.025 150.498 221.342 153.141 220.771C156.018 220.719 158.881 220.659 161.725 220.584C162.964 219.159 164.271 217.793 165.644 216.48C166.775 214.965 167.708 213.345 168.443 211.629C170.209 209.021 171.515 206.159 172.362 203.047C173.254 199.491 173.814 195.883 174.042 192.226C176.412 191.166 178.651 189.924 180.76 188.494C183.921 192.446 186.407 196.801 188.225 201.554C190.001 208.547 189.505 215.39 186.732 222.077C185.037 225.264 182.671 227.875 179.64 229.913C177.289 231.275 174.799 232.331 172.176 233.084C173.878 234.122 175.621 235.055 177.401 235.883C184.712 241.913 189.251 249.622 191.024 259.018C192.211 266.686 192.584 274.398 192.144 282.152C184.369 278.301 177.218 273.577 170.683 267.973C167.212 264.275 164.289 260.171 161.912 255.659C160.314 251.712 159.504 247.607 159.486 243.346C160.967 242.73 162.337 241.92 163.591 240.92C164.39 240.682 165.136 240.808 165.831 241.294C167.521 244.864 169.451 248.286 171.616 251.555C174.146 254.305 176.946 256.417 180.013 257.898C176.949 250.167 172.097 243.764 165.457 238.682C166.488 237.428 167.174 235.995 167.51 234.39C168.831 228.581 166.906 224.226 161.725 221.331C161.322 221.652 161.259 222.025 161.539 222.45C166.126 226.596 167.122 231.446 164.524 237.002C161.527 240.409 157.732 242.088 153.141 242.04C151.726 236.946 150.047 231.909 148.102 226.928C147.666 225.808 147.046 224.812 146.236 223.943C146.161 226.204 145.915 228.443 145.49 230.659C144.131 232.454 142.575 234.07 140.824 235.51C129.758 236.488 119.307 234.495 109.473 229.54C105.841 227.446 102.296 225.208 98.8357 222.823C98.6864 222.909 98.6229 223.032 98.6491 223.196C98.3803 222.603 98.0071 222.043 97.5294 221.517C89.9602 216.558 85.1717 209.655 83.16 200.808C82.9733 199.069 82.9099 197.33 82.9733 195.584C87.1573 188.106 91.5726 180.767 96.2231 173.569C96.9173 172.561 97.8503 171.938 99.0223 171.703Z" fill="#D23A28"/>
<path fill-rule="evenodd" clip-rule="evenodd" d="M155.753 244.092C155.055 244.338 154.309 244.588 153.514 244.838C155.227 248.712 156.347 252.689 156.873 256.779C156.694 264.148 154.951 271.115 151.648 277.675C147.845 283.783 143.803 289.753 139.518 295.585C139.268 296.081 139.021 296.081 138.771 295.585C129.937 282.641 126.888 268.462 129.627 253.047C131.087 249.133 132.953 245.402 135.226 241.853C136.715 239.868 138.331 238.002 140.078 236.256C140.052 236.42 140.115 236.544 140.264 236.629C142.298 235.159 144.474 233.917 146.796 232.898C147.147 232.939 147.46 233.062 147.729 233.271C148.755 235.849 148.879 238.461 148.102 241.107C146.326 243.536 144.833 246.148 143.623 248.943C142.201 253.294 142.448 257.521 144.37 261.63C145.24 258.768 146.113 255.909 146.982 253.047C147.419 248.872 148.539 244.894 150.342 241.107C150.838 240.611 151.338 240.611 151.835 241.107C152.577 241.973 153.014 242.965 153.141 244.092H155.753Z" fill="#D23A28"/>
<path fill-rule="evenodd" clip-rule="evenodd" d="M159.486 243.346C158.254 243.641 157.008 243.891 155.753 244.092H153.141C153.014 242.965 152.577 241.973 151.835 241.107C151.338 240.611 150.838 240.611 150.342 241.107C148.539 244.894 147.419 248.872 146.983 253.047C146.113 255.909 145.24 258.768 144.37 261.63C142.448 257.521 142.201 253.294 143.623 248.943C144.833 246.148 146.326 243.536 148.102 241.107C148.879 238.461 148.755 235.849 147.729 233.271C147.46 233.062 147.147 232.939 146.796 232.898C144.474 233.917 142.298 235.159 140.264 236.629C140.115 236.543 140.052 236.42 140.078 236.256L140.824 235.51C142.575 234.07 144.131 232.454 145.49 230.659C145.915 228.443 146.161 226.204 146.236 223.943C147.046 224.812 147.666 225.808 148.102 226.928C150.047 231.909 151.726 236.946 153.141 242.04C157.732 242.088 161.527 240.409 164.524 237.002C167.122 231.446 166.126 226.596 161.539 222.45C161.259 222.025 161.322 221.652 161.725 221.331C166.906 224.226 168.831 228.581 167.51 234.39C167.174 235.995 166.488 237.428 165.457 238.682C172.097 243.764 176.949 250.167 180.014 257.898C176.946 256.417 174.146 254.305 171.616 251.555C169.451 248.286 167.521 244.864 165.831 241.294C165.137 240.808 164.39 240.682 163.591 240.92C162.337 241.92 160.968 242.73 159.486 243.346Z" fill="#8B2235"/>
<path fill-rule="evenodd" clip-rule="evenodd" d="M109.473 229.54C119.307 234.495 129.758 236.488 140.824 235.51L140.078 236.256C138.331 238.002 136.715 239.868 135.226 241.853C127.41 241.073 120.196 238.585 113.578 234.39C111.779 233.096 110.413 231.476 109.473 229.54Z" fill="#F97E48"/>
<path fill-rule="evenodd" clip-rule="evenodd" d="M159.486 243.346C159.504 247.607 160.314 251.712 161.912 255.659C164.289 260.171 167.212 264.275 170.683 267.973C170.074 268.902 169.578 269.898 169.19 270.958C164.655 266.611 160.736 261.76 157.433 256.406C157.019 255.954 156.832 256.077 156.873 256.779C156.347 252.689 155.227 248.712 153.514 244.838C154.309 244.588 155.056 244.338 155.753 244.092C157.008 243.891 158.254 243.641 159.486 243.346Z" fill="#F97E48"/>
</g>
</g>
<defs>
<clipPath id="clip0_14_3">
<rect width="286" height="346" fill="white"/>
</clipPath>
</defs>
</svg>
