<svg width="257" height="263" viewBox="0 0 257 263" fill="none" xmlns="http://www.w3.org/2000/svg">
<g clip-path="url(#clip0_20_77)">
<path fill-rule="evenodd" clip-rule="evenodd" d="M145.83 49.2494C147.004 51.9964 148.602 53.406 148.742 61.4559C148.92 71.4631 143.393 81.8142 143.393 81.8142C143.393 81.8142 144.295 72.5755 142.867 63.2094C141.625 55.0788 137.425 49.865 137.425 49.865C137.425 49.865 142.613 48.5531 145.826 49.2494H145.83Z" fill="#602852"/>
<path fill-rule="evenodd" clip-rule="evenodd" d="M123.026 140.117C123.416 139.654 124.306 139.293 124.819 139.51C127.074 140.469 123.844 156.96 122.699 156.96C122.424 156.96 122.89 153.92 122.411 151.245C122.085 149.398 122.152 141.149 123.026 140.117Z" fill="#F25B0F"/>
<path fill-rule="evenodd" clip-rule="evenodd" d="M81.9145 60.9676C81.4907 62.5258 80.999 66.2281 78.6126 71.0767C76.489 75.3946 73.8992 75.4838 73.8271 79.1096C73.7084 85.2447 73.6406 91.486 71.7883 91.5751C69.1137 91.7025 66.634 84.3701 64.2222 82.9096C63.0523 82.2005 59.5045 78.4388 56.3213 80.4173C50.7092 83.9031 53.049 90.7345 53.4559 92.5347C54.9819 99.2939 61.484 107.781 64.4045 109.178C65.1335 109.526 67.0621 110.931 68.8297 110.834C71.1398 110.706 72.8098 109.687 72.8098 109.687L73.0641 122.28L71.7925 135.383C71.7925 135.383 73.3354 144.766 81.7238 152.79C85.4369 156.34 88.7007 167.179 96.4914 168.733C97.7122 168.975 110.568 180.808 113.044 180.464C114.836 180.218 119.3 169.901 121.83 166.691C123.365 164.746 122.47 158.819 122.72 157.125C123.288 153.334 121.919 148.719 122.593 144.626C122.882 142.893 122.615 140.282 123.047 140.129C124.399 139.65 125.543 139.306 126.412 139.017C131.376 137.361 143.49 116.608 145.317 103.247C145.957 98.5849 148.437 92.4073 143.982 80.1626C143.321 78.3497 143.893 76.6259 143.727 73.6581C143.1 62.3687 142.808 61.027 141.913 58.1017C141.684 57.3545 140.226 52.9559 137.903 50.0688C127.298 36.8815 85.5386 47.7209 81.9145 60.9718V60.9676Z" fill="#FDA245"/>
<path d="M56.7028 92.9465C56.1984 91.3756 56.0034 89.7283 56.4569 88.2932C56.9613 86.7817 58.3262 84.6546 60.0259 86.0047C63.0057 88.1955 64.4554 91.8893 65.5235 95.3157C66.0152 97.014 66.651 98.8269 66.5366 100.585L66.5196 100.657C66.5111 100.695 66.4942 100.695 66.545 100.64C66.6256 100.563 66.6001 100.576 66.7739 100.521C66.9604 100.487 67.0071 100.529 67.0071 100.521C66.6256 100.317 64.8411 98.9628 64.4342 98.6825C63.7984 98.1985 63.1922 97.7187 62.9125 97.1328C62.2894 95.685 63.0269 94.0971 63.8068 92.8149L63.7051 92.73C62.425 93.9061 61.3653 95.6638 61.9376 97.515C62.2428 98.4278 62.9464 99.0816 63.6203 99.6845C64.4511 100.389 65.2226 101.052 66.1254 101.659C66.4094 101.807 66.6129 101.986 67.0834 101.909C67.3546 101.837 67.4055 101.761 67.5666 101.621C67.8675 101.264 67.8972 101.009 67.9481 100.619C68.0074 99.4765 67.6895 98.3641 67.3885 97.3281C66.4264 94.0801 64.5825 91.2397 62.8574 88.3739C62.1834 87.3039 61.5476 86.1618 60.6024 85.2702C59.3944 84.0432 57.6353 84.213 56.6223 85.5972C54.8717 87.7073 54.9988 90.8661 56.5841 93.0145L56.7028 92.955V92.9465Z" fill="#F18700"/>
<path fill-rule="evenodd" clip-rule="evenodd" d="M72.7547 131.506C72.7547 131.506 73.9967 136.274 74.7935 138.435C75.8193 141.212 78.7313 144.834 78.7313 144.834C78.7313 144.834 80.1767 136.767 81.1813 136.147C82.0375 135.616 86.3567 140.448 95.347 145.522C99.4712 147.848 103.854 150.086 109.606 149.856C114.413 149.665 120.588 146.252 120.809 144.498C121.012 142.906 122.148 140.422 122.148 140.422C122.148 140.422 116.943 142.265 103.43 137.289C95.3724 134.326 90.2987 130.687 87.1959 128.551C76.1202 120.93 72.6827 107.828 72.6827 107.828C72.6827 107.828 72.848 114.141 72.8268 123.516C72.8141 128.343 72.7547 131.502 72.7547 131.502V131.506Z" fill="#F97E48"/>
<path fill-rule="evenodd" clip-rule="evenodd" d="M49.2596 74.4224C49.2596 74.4224 56.3764 70.1766 63.3279 67.5698C75.743 62.9164 82.0926 60.8275 82.0926 60.8275C82.0926 60.8275 81.6475 65.6677 79.0534 70.6649C76.5145 75.556 74.2171 78.8252 74.2171 78.8252C74.2171 78.8252 74.3612 91.278 72.2418 91.6431C70.0123 92.0252 68.0413 85.5208 64.0951 82.3322C63.2812 81.6741 59.5258 78.6257 56.4569 80.1626C52.2564 82.2685 53.0406 87.8899 53.0829 90.0467C53.2101 96.8059 60.5812 105.994 63.2685 108.282C66.7824 111.275 68.6263 111.093 69.7622 110.834C71.4323 110.452 72.8183 109.688 72.8183 109.688L72.9455 125.117L71.356 127.634C71.356 127.634 67.8209 133.587 61.5942 142.15C61.4332 142.376 60.4371 144.354 59.8267 143.513C59.6741 146.099 56.8978 145.131 56.1433 145.267C54.1638 145.619 47.2166 136.27 49.2681 126.904C52.0063 114.405 60.9796 109.942 60.9796 109.942C60.9796 109.942 49.9633 101.587 47.4836 92.0889C46.4028 87.9451 47.3565 82.0775 48.1194 79.2073C49.018 75.8277 49.2639 74.4266 49.2639 74.4266L49.2596 74.4224Z" fill="#602852"/>
<path fill-rule="evenodd" clip-rule="evenodd" d="M142.159 58.5518L140.154 53.338L137.789 49.6866C137.789 49.6866 125.942 50.4976 109.534 53.6394C96.6737 56.102 81.9527 60.7001 81.9527 60.7001C81.9527 60.7001 81.7408 62.84 80.999 65.1963C79.8503 68.8349 79.1043 70.5375 79.1043 70.5375C79.1043 70.5375 93.4268 64.3514 111.187 60.8445C127.608 57.6007 142.155 58.5475 142.155 58.5475L142.159 58.5518Z" fill="#F97E48"/>
<path fill-rule="evenodd" clip-rule="evenodd" d="M49.0053 73.9128C49.0053 73.9128 49.5775 74.9318 47.988 80.2263C46.1611 86.3019 47.7167 89.5499 47.988 91.5751C48.912 98.4617 61.9291 110.065 61.9291 110.065C62.0859 109.356 55.6134 114.591 52.6972 118.867C51.5485 120.552 18.6266 119.028 15.8248 105.221C12.5991 89.3206 49.0053 73.9128 49.0053 73.9128Z" fill="#846A21"/>
<path fill-rule="evenodd" clip-rule="evenodd" d="M192.426 64.4109C192.205 82.7738 145.508 103.242 145.508 103.242C145.508 103.242 146.19 98.8694 145.953 92.5305C145.728 86.5355 144.575 86.0048 143.965 81.0542C143.74 79.2328 147.928 70.9621 148.454 63.358C149.009 55.3378 145.995 49.8777 145.995 49.8777C145.995 49.8777 192.617 48.5234 192.426 64.4067V64.4109Z" fill="#846A21"/>
<path fill-rule="evenodd" clip-rule="evenodd" d="M192.235 62.8825C192.235 62.8825 190.802 53.6989 161.106 50.0646C146.186 48.2389 122.924 49.398 83.8898 60.4581C62.8489 66.4192 32.2964 81.5807 23.7342 90.4925C15.3204 99.2515 15.7782 104.075 15.7782 104.075C15.7782 104.075 12.5313 98.5127 24.9465 85.3297C31.4359 78.4346 37.7601 74.4691 48.5306 66.5211C48.9841 66.1856 48.8824 65.9479 48.8824 65.9479C48.8824 65.9479 46.9538 45.2923 49.7725 37.3825C51.0611 33.7694 52.5319 28.1862 57.5378 23.482C61.6705 19.6014 69.457 14.7909 77.7818 11.751C88.5185 7.81942 99.5772 6.32492 112.535 7.28021C121.195 7.91707 124.916 12.6681 126.667 14.1668C130.126 17.1218 131.618 21.1978 135.229 28.6872C136.081 30.4492 136.963 32.3768 137.242 32.9839C138.65 36.0494 139.769 38.618 140.544 40.4352L140.578 40.9787C153.375 41.8406 172.186 47.7676 181.414 51.5336C192.392 56.0086 192.235 62.8825 192.235 62.8825Z" fill="#FFF6A0"/>
<path fill-rule="evenodd" clip-rule="evenodd" d="M96.4915 33.8034C65.5532 41.0721 48.4755 60.2034 48.4755 60.2034L48.8443 66.1644C48.8443 66.1644 73.8271 49.8693 102.604 43.2374C121.462 38.8898 140.565 40.7876 140.565 40.7876L137.242 32.984C137.242 32.984 122.258 27.749 96.4915 33.8034Z" fill="#846A21"/>
<path d="M92.1425 84.8925C95.4869 83.606 98.7422 82.8376 102.294 83.1433C103.447 83.2239 104.609 83.4107 105.893 83.6188C102.328 79.6363 94.9274 80.3411 92.1425 84.8925Z" fill="#602852"/>
<path d="M127.642 81.2454C129.663 80.6977 131.456 80.4599 133.466 80.2137C134.924 80.0651 136.098 79.8103 137.42 80.3368C137.891 80.5151 138.378 80.8675 138.912 80.927C138.366 79.9165 137.81 78.8678 136.611 78.4305C133.72 77.3478 129.193 78.5111 127.642 81.2454Z" fill="#602852"/>
<path d="M103.422 106.495C103.023 107.03 102.426 107.34 101.9 107.701C101.285 107.989 100.7 108.223 100.132 108.694C99.84 108.932 99.5391 109.271 99.3441 109.615C98.7761 110.515 98.3946 111.543 98.2293 112.592C98.0979 113.521 98.0979 114.498 98.454 115.39C99.0516 113.708 99.7086 112.218 100.544 110.702C100.942 109.87 101.591 109.373 102.307 108.77C102.387 108.698 102.566 108.537 102.608 108.465C103.015 107.9 103.481 107.225 103.417 106.495H103.422Z" fill="#F18700"/>
<path fill-rule="evenodd" clip-rule="evenodd" d="M103.324 112.044C103.324 112.044 108.72 114.324 117.363 114.052C125.488 113.797 130.541 111.755 130.541 111.755C130.541 111.755 124.238 123.231 119.084 123.423C110.004 123.758 103.328 112.04 103.328 112.04L103.324 112.044Z" fill="#602852"/>
<path fill-rule="evenodd" clip-rule="evenodd" d="M103.324 112.044C103.324 112.044 108.72 114.324 117.363 114.052C125.488 113.797 130.541 111.755 130.541 111.755C130.541 111.755 125.268 117.079 120.109 117.27C111.03 117.606 103.324 112.04 103.324 112.04V112.044Z" fill="white"/>
<path fill-rule="evenodd" clip-rule="evenodd" d="M118.185 123.138C120.889 122.989 123.509 121.597 123.39 120.892C123.272 120.183 120.36 120.132 117.325 120.081C114.023 120.026 111.535 119.979 111.403 120.608C111.242 121.38 114.633 123.338 118.181 123.142L118.185 123.138Z" fill="#EC641D"/>
<path d="M103.324 112.044C111.535 115.555 122.415 115.322 130.829 112.477L129.863 111.386C127.777 114.859 123.267 122.191 119.058 122.731C112.37 122.93 106.953 117.105 103.324 112.048V112.044ZM103.324 112.044C106.482 117.873 111.937 124.149 119.109 124.123C124.145 123.758 128.879 116.145 131.215 112.129L132.27 110.252L130.248 111.034C121.966 113.87 111.785 114.477 103.324 112.04V112.044Z" fill="#D23A27"/>
<path fill-rule="evenodd" clip-rule="evenodd" d="M83.3176 75.8957C83.3176 75.8957 87.4249 71.2466 94.6349 70.2998C101.658 69.3785 108.3 71.6797 109.148 71.064C110.06 70.4017 109.483 68.9284 109.436 68.7671C108.411 65.2644 100.476 65.1455 99.6959 65.1327C98.0937 65.1073 94.0796 65.1922 89.6714 67.9562C86.6153 69.871 83.3218 75.8957 83.3218 75.8957H83.3176Z" fill="#602852"/>
<path fill-rule="evenodd" clip-rule="evenodd" d="M142.697 68.7714C142.697 68.7714 140.722 62.0376 135.504 62.3306C127.548 62.7764 123.539 67.625 122.39 70.6183C121.402 73.1997 121.343 76.5963 121.373 78.0143C121.483 83.7631 124.263 89.2613 125.51 91.7239C126.891 94.4581 127.548 96.2965 127.676 98.9926C127.765 100.929 126.073 102.024 125.446 102.054C122.517 102.181 118.126 102.691 113.094 101.926C112.493 101.833 112.2 100.801 112.141 100.844C112.043 100.912 111.632 102.886 114.497 104.287C117.024 105.523 119.215 106.198 120.228 106.202C121.69 106.202 129.46 103.523 130.223 100.844C130.448 100.058 130.638 99.0095 129.206 93.9104C128.888 92.7768 125.45 87.8347 123.856 82.863C123.225 80.8887 122.572 76.3628 123.848 72.2104C124.556 69.9177 130.13 67.5656 133.529 67.0476C138.382 66.3046 142.697 68.7671 142.697 68.7671V68.7714Z" fill="#602852"/>
<path fill-rule="evenodd" clip-rule="evenodd" d="M181.422 229.405C183.016 222.221 186.343 217.27 187.831 213.814C188.87 211.403 199.267 185.02 198.207 178.354C197.576 174.38 196.682 174.18 196.376 170.1C195.991 164.933 196.982 159.337 201.87 149.619C201.87 149.619 220.486 127.507 229.947 118.897C231.685 118.009 232.74 118.37 233.609 118.947C235.529 120.23 234.609 124.645 234.372 125.163C231.371 131.685 221.707 140.244 222.165 141.212C222.622 142.18 225.182 141.178 226.59 142.588C228.217 144.218 226.179 145.963 227.353 147.326C228.311 148.438 229.684 147.475 230.71 148.549C232.999 150.943 231.405 154.561 231.931 155.58C232.698 157.07 234.198 156.382 235.44 157.414C238.543 159.991 236.123 167.71 235.745 168.877C232.897 177.67 226.615 181.848 223.538 185.843C221.592 188.365 227.005 221.189 214.23 246.218C212.038 250.51 206.096 262.908 195.461 263.795C187.526 264.458 172.805 252.642 168.401 242.244C167.303 239.65 163.484 232.61 166.773 223.444C170.605 212.757 182.189 205.387 185.542 207.7C186.644 208.46 188.276 212.443 187.471 214.655C187.161 215.5 182.541 223.291 181.422 229.405Z" fill="#FDA245"/>
<path fill-rule="evenodd" clip-rule="evenodd" d="M45.7627 256.633C45.7627 256.633 40.9052 257.044 27.7101 254.675C17.2193 252.79 11.23 249.377 11.23 249.377C11.23 249.377 10.9418 244.464 12.6542 243.059C15.8502 240.435 20.5128 245.127 31.0672 246.931C41.079 248.642 43.9401 244.354 46.2671 247.878C47.5938 249.886 45.7627 256.633 45.7627 256.633Z" fill="#F97E48"/>
<path d="M231.32 167.043C229.214 167.82 227.374 169.26 225.539 170.495C224.627 171.085 223.644 171.646 222.766 171.565C221.91 171.518 221.024 170.707 220.6 170.037C219.761 168.334 221.304 166.266 222.372 164.852C224.555 162.182 227.264 159.732 230.138 157.796C230.231 157.737 230.349 157.673 230.349 157.673C230.307 157.686 230.349 157.694 230.087 157.745C229.328 157.889 228.383 157.045 228.785 156.043C228.874 155.864 228.828 155.962 228.815 155.97C228.612 156.246 228.044 156.794 227.777 157.074C226.225 158.603 224.564 160.08 222.864 161.447C221.431 162.547 220.02 163.74 218.379 164.424C218.201 164.492 218.04 164.509 218.04 164.509C218.053 164.509 218.117 164.5 218.278 164.568C218.379 164.593 218.524 164.734 218.447 164.661C216.968 163.035 215.268 160.73 214.641 158.836C214.649 158.93 214.624 159.044 214.59 159.104C214.56 159.146 214.658 159.01 214.777 158.891C217.362 156.849 220.448 155.601 223.05 153.33C224.924 151.793 226.556 149.704 227.221 147.301C227.518 146.451 227.891 145.415 227.866 144.396C227.912 142.295 225.742 140.813 223.843 140.766C221.308 140.618 219.083 141.407 216.837 142.299C214.713 143.191 212.695 144.248 210.741 145.394C206.816 147.695 203.247 150.608 200.344 154.043C205.362 149.572 211.25 146.316 217.519 144.121C219.757 143.462 222.567 142.414 224.733 143.437C225.848 144.074 225.144 145.365 224.78 146.4C223.449 150.549 219.375 152.514 215.807 154.688C214.603 155.431 213.327 156.064 212.339 157.202C211.89 157.745 211.614 158.395 211.708 159.167C211.716 159.274 211.784 159.55 211.801 159.66C212.36 161.575 213.45 163.014 214.548 164.538C215.103 165.264 215.645 165.956 216.298 166.627C216.527 166.839 216.629 166.971 217.023 167.188C220.138 168.826 228.078 160.513 230.227 158.242C230.549 157.843 230.816 157.639 231.104 157.07C231.184 156.858 231.244 156.747 231.214 156.34C231.006 155.189 229.871 155.053 229.286 155.376C227.81 156.229 226.645 157.388 225.411 158.505C222.148 161.621 214.645 169.523 221.732 172.559C223.33 173.093 224.886 172.13 226.03 171.153C227.772 169.688 229.345 168.126 231.329 167.039L231.32 167.043Z" fill="#F97E48"/>
<path d="M211.33 177.743C217.4 174.227 217.956 164.194 212.246 160.089C212.602 161.745 212.92 163.222 213.098 164.691C213.721 169.243 212.839 173.391 211.33 177.743Z" fill="#F97E48"/>
<path d="M180.494 232.309C182.291 229.536 182.923 226.314 184.008 223.27C185.241 220.421 187.208 217.406 187.831 214.222C186.564 215.385 185.368 216.527 184.271 217.805C182.927 219.393 181.469 221.253 180.82 223.397C180.015 226.327 179.833 229.29 180.494 232.313V232.309Z" fill="#F97E48"/>
<path fill-rule="evenodd" clip-rule="evenodd" d="M19.9787 366.19C18.83 364.092 18.9064 359.6 19.0632 350.612C19.1607 344.957 19.6439 340.762 19.521 340.524C17.8424 337.213 12.9637 305.263 9.90759 287.334C7.23721 271.667 3.37151 248.995 14.4854 241.021C22.8144 235.047 38.5315 238.058 46.9877 247.899C52.888 254.769 46.3138 261.074 43.7833 288.709C42.6642 300.937 47.348 337.544 47.9541 341.9C48.5518 346.197 50.9551 349.479 53.7527 355.452C57.8049 364.105 57.6692 365.286 57.4149 366.05C54.7276 374.202 25.5272 376.316 19.9787 366.19Z" fill="#FDA245"/>
<path fill-rule="evenodd" clip-rule="evenodd" d="M114.413 176.414C114.413 176.414 87.7131 153.389 86.7848 152.693C69.1179 139.399 72.7802 124.382 72.7802 124.382C72.7802 124.382 67.8463 133.094 61.5137 141.408C55.9737 148.676 36.6792 156.319 32.4871 158.624C27.9008 161.146 16.9989 168.368 12.2431 181.199C2.88405 206.448 6.65649 239.391 6.65649 239.391C6.65649 239.391 14.2692 246.634 27.2057 249.377C37.7855 251.618 50.6033 251.618 50.6033 251.618L170.135 227.571L184.783 215.037L190.887 203.879C190.887 203.879 174.78 169.094 167.1 163.375C150.344 150.901 135.424 146.859 135.424 146.859C135.424 146.859 132.842 142.736 132.338 141.726C131.601 140.253 128.663 137.438 128.663 137.438C128.663 137.438 127.896 138.219 126.866 138.809C125.967 139.323 124.819 139.357 124.844 139.573C124.971 140.656 125.348 145.793 124.543 150.973C123.598 157.032 114.421 176.414 114.421 176.414H114.413Z" fill="#F3790C"/>
<path fill-rule="evenodd" clip-rule="evenodd" d="M60.6702 142.405C60.6702 142.405 64.8792 150.014 72.3648 161.205C74.7596 164.785 76.8323 165.693 77.8878 167.854C82.4868 177.276 89.4255 202.525 89.4255 202.525L151.116 195.638C151.116 195.638 148.36 178.04 146.58 172.397C144.465 165.689 135.157 146.689 135.157 146.689L141.718 148.961C141.718 148.961 159.428 170.249 165.112 207.115C169.469 235.353 168.63 240.1 168.63 240.1L162.7 264.861L175.619 368.033H135.64L58.8857 368.95L53.8501 353.818L47.5938 342.507L46.8308 320.956L46.0679 278.311L49.3825 255.317C49.3825 255.317 78.5702 233.069 69.4358 182.816C67.3758 171.489 54.6512 147.143 54.6512 147.143C54.6512 147.143 57.3216 145.339 58.216 144.651C58.8475 144.167 60.6702 142.397 60.6702 142.397V142.405Z" fill="#831F82"/>
<path d="M121 174.405C120.953 179.619 121.296 184.82 121.733 190.009L122.445 188.947C118.41 190.004 114.4 191.155 110.416 192.399L111.657 193.231C111.306 190.752 110.92 188.276 110.479 185.809C110.055 183.402 109.547 180.795 108.966 178.426C108.953 179.687 108.97 180.944 109.013 182.201C109.14 186.31 109.436 190.493 109.814 194.585C114.514 193.388 119.185 192.059 123.81 190.603C123.081 185.173 122.246 179.751 121 174.41V174.405Z" fill="#F25B0F"/>
<path d="M115.748 186.65C114.535 186.65 113.552 185.793 113.552 184.735C113.552 183.678 114.535 182.82 115.748 182.82C116.96 182.82 117.943 183.678 117.943 184.735C117.943 185.793 116.96 186.65 115.748 186.65Z" fill="#F25B0F"/>
<path d="M134.178 168.665C133.898 170.312 133.767 171.998 133.224 173.535C133.101 173.824 133.012 174.07 132.804 174.206C132.779 174.206 132.787 174.197 132.804 174.176C132.868 174.159 132.775 174.121 132.753 174.1L132.664 174.027C130.986 172.172 129.871 169.676 127.62 168.266C124.509 166.19 121.156 168.126 119.274 170.822C118.588 171.769 118.011 172.771 117.562 173.828C119.478 172.057 121.402 169.845 124.013 169.361C127.692 169.018 129.138 173.951 131.893 175.62C132.482 175.951 133.33 175.921 133.813 175.441C135.263 173.947 134.563 170.499 134.173 168.661L134.178 168.665Z" fill="#F25B0F"/>
<path d="M78.0319 168.092C80.448 172.652 83.894 176.77 88.2429 179.666C90.2182 180.944 92.1002 181.407 94.0288 179.696C95.4403 178.392 96.0888 176.74 96.9959 175.216C97.7546 173.913 98.5854 172.737 100.065 172.359C101.582 171.9 103.002 171.68 104.426 172.495C105.842 173.297 107.109 174.507 108.398 175.552C107.936 174.826 107.444 174.125 106.914 173.437C105.804 172.028 104.367 170.584 102.426 170.41C100.45 170.283 98.4285 170.571 96.9492 171.922C95.5674 173.187 94.8045 174.843 93.9355 176.371C93.2573 177.496 92.6512 178.613 91.3753 178.897C90.6378 178.944 89.8282 178.477 89.1373 178.133C84.8138 175.641 81.2025 172.002 78.0319 168.092Z" fill="#F25B0F"/>
<path d="M29.1428 163.884C42.9609 163.328 49.2512 178.163 52.5192 189.397C54.274 195.435 55.4609 201.667 56.4103 207.887C58.1016 222.573 54.7148 237.242 51.8156 251.618C56.156 237.641 60.0853 222.357 58.4576 207.599C57.2496 199.145 55.4778 190.713 52.2903 182.757C48.4331 173.009 40.9984 162.173 29.1343 163.884H29.1428Z" fill="#F25B0F"/>
<path d="M164.989 172.771C164.073 177.386 163.467 182.133 164.086 186.833C164.726 191.52 165.739 196.08 166.833 200.64C167.341 202.911 167.871 205.132 168.053 207.352C168.469 214.235 167.46 221.223 167.791 228.182C168.299 225.885 168.71 223.584 169.071 221.274C169.757 216.578 170.529 211.963 170.164 207.161C169.952 204.728 169.333 202.406 168.706 200.16C167.545 195.689 166.371 191.159 165.591 186.616C165.256 184.383 165.023 182.052 164.929 179.755C164.811 177.433 165.031 175.106 164.993 172.775L164.989 172.771Z" fill="#F25B0F"/>
</g>
<defs>
<clipPath id="clip0_20_77">
<rect width="257" height="263" fill="white"/>
</clipPath>
</defs>
</svg>
