<?xml version="1.0" encoding="UTF-8"?>
<svg xmlns="http://www.w3.org/2000/svg" xmlns:xlink="http://www.w3.org/1999/xlink" viewBox="0 0 157.21 129.59">
  <defs>
    <style>
      .cls-1 {
        fill: #fff6a0;
      }

      .cls-2 {
        fill: #dcae58;
      }

      .cls-2, .cls-3 {
        opacity: .35;
      }

      .cls-4 {
        fill: url(#Nueva_muestra_de_degradado_1-2);
      }

      .cls-5 {
        clip-path: url(#clippath-9);
      }

      .cls-6, .cls-7, .cls-3 {
        fill: #fff;
      }

      .cls-6, .cls-8, .cls-9, .cls-10, .cls-11 {
        mix-blend-mode: screen;
        opacity: .55;
      }

      .cls-12 {
        fill: #ea570d;
      }

      .cls-8 {
        fill: #89bd28;
      }

      .cls-13 {
        fill: url(#Naranja_amarillo);
      }

      .cls-14 {
        fill: none;
      }

      .cls-15 {
        fill: #f18700;
      }

      .cls-9 {
        fill: #4071b6;
      }

      .cls-16 {
        fill: url(#Nueva_muestra_de_degradado_1-3);
      }

      .cls-17 {
        fill: #831f82;
      }

      .cls-18 {
        isolation: isolate;
      }

      .cls-19 {
        clip-path: url(#clippath-8);
      }

      .cls-10 {
        fill: #944393;
      }

      .cls-20 {
        fill: #fec800;
      }

      .cls-21 {
        clip-path: url(#clippath-3);
      }

      .cls-22 {
        fill: #3973b9;
      }

      .cls-23 {
        opacity: .15;
      }

      .cls-23, .cls-24, .cls-25, .cls-26 {
        mix-blend-mode: multiply;
      }

      .cls-27 {
        fill: url(#Naranja_amarillo-3);
      }

      .cls-24 {
        opacity: .2;
      }

      .cls-28 {
        fill: #1e1e1c;
      }

      .cls-29 {
        fill: #846a21;
      }

      .cls-11 {
        fill: #f08806;
      }

      .cls-26 {
        fill: url(#Nueva_muestra_de_degradado_1);
      }

      .cls-30 {
        clip-path: url(#clippath-2);
      }

      .cls-31 {
        fill: url(#Naranja_amarillo-2);
      }

      .cls-32 {
        fill: #bdd24d;
      }

      .cls-33 {
        fill: #964091;
      }
    </style>
    <linearGradient id="Naranja_amarillo" data-name="Naranja, amarillo" x1="112.2" y1="94.81" x2="112.2" y2="122.16" gradientUnits="userSpaceOnUse">
      <stop offset="0" stop-color="#ffef26"/>
      <stop offset=".02" stop-color="#fee921"/>
      <stop offset=".1" stop-color="#fdd70e"/>
      <stop offset=".19" stop-color="#fdcb03"/>
      <stop offset=".28" stop-color="#fdc800"/>
      <stop offset=".67" stop-color="#f18f34"/>
      <stop offset=".89" stop-color="#e95f32"/>
      <stop offset="1" stop-color="#e3312d"/>
    </linearGradient>
    <linearGradient id="Nueva_muestra_de_degradado_1" data-name="Nueva muestra de degradado 1" x1="112.2" y1="120.48" x2="112.2" y2="99.3" gradientUnits="userSpaceOnUse">
      <stop offset="0" stop-color="#f08900"/>
      <stop offset=".12" stop-color="#f19215" stop-opacity=".92"/>
      <stop offset=".35" stop-color="#f4ac4c" stop-opacity=".7"/>
      <stop offset=".68" stop-color="#f9d5a5" stop-opacity=".35"/>
      <stop offset="1" stop-color="#fff" stop-opacity="0"/>
    </linearGradient>
    <linearGradient id="Naranja_amarillo-2" data-name="Naranja, amarillo" x1="37.89" y1="57.31" x2="37.89" y2="125.7" xlink:href="#Naranja_amarillo"/>
    <linearGradient id="Nueva_muestra_de_degradado_1-2" data-name="Nueva muestra de degradado 1" x1="37.89" y1="121.5" x2="37.89" y2="68.55" xlink:href="#Nueva_muestra_de_degradado_1"/>
    <linearGradient id="Naranja_amarillo-3" data-name="Naranja, amarillo" x1="59.89" y1="94.81" x2="59.89" y2="122.16" xlink:href="#Naranja_amarillo"/>
    <linearGradient id="Nueva_muestra_de_degradado_1-3" data-name="Nueva muestra de degradado 1" x1="59.89" y1="120.48" x2="59.89" y2="99.3" xlink:href="#Nueva_muestra_de_degradado_1"/>
    <clipPath id="clippath-2">
      <path class="cls-14" d="M39.24,37.14l5.53-6.16c1.28-1.42.52-3.69-1.36-4.06l-8.47-.83c-2.21-.22-3.8,2.06-2.84,4.06l3.18,6.6c.85,1.43,2.84,1.63,3.96.39Z"/>
    </clipPath>
    <clipPath id="clippath-3">
      <path class="cls-14" d="M26.42,51.92l18.03-12,5.5,22s.31,1.64-1.22,2.66c-.9.61-1.64.8-2.94.09l-19.37-12.76Z"/>
    </clipPath>
    <clipPath id="clippath-8">
      <path class="cls-14" d="M39.24,37.14l5.53-6.16c1.28-1.42.52-3.69-1.36-4.06l-8.47-.83c-2.21-.22-3.8,2.06-2.84,4.06l3.18,6.6c.85,1.43,2.84,1.63,3.96.39Z"/>
    </clipPath>
    <clipPath id="clippath-9">
      <path class="cls-14" d="M26.42,51.92l18.03-12,5.5,22s.31,1.64-1.22,2.66c-.9.61-1.64.8-2.94.09l-19.37-12.76Z"/>
    </clipPath>
  </defs>
  <g class="cls-18">
    <g id="Capa_2" data-name="Capa 2">
      <g id="Capa_8" data-name="Capa 8">
        <g>
          <path class="cls-7" d="M157.06,42.76c-.1-.43-.27-.94-.59-1.48l.05-.9-1.85-1.13c-.09-.06-.18-.11-.27-.16l-.06-.04-.26-.13-.29-.12-.35-.13c-.32-.11-.63-.21-.99-.32l-1.67-.49c-1.44-.41-2.87-.81-4.31-1.21-.78-.21-1.56-.43-2.35-.65-3.86-1.07-8.08-2.21-12.9-3.51l-.03-.1c-.27-1.09-.52-2.19-.77-3.27-.23-1.04-.48-2.14-.67-3.19v-.08c-.09-.41-.15-.79-.18-1.11-.02-1.07-.29-2-.55-2.77l-.03-.07c-.93-2.58-2.54-5.05-4.65-7.15-.53-.53-1.09-1.03-1.67-1.5.1-.07.21-.15.31-.22.04-.02.73-.4.73-.4.27-.15.49-.28.67-.39.14-.09.26-.17.35-.24.58-.41,1.03-.93,1.35-1.53.53-1.01.62-2.21.26-3.28-.15-.44-.37-.86-.65-1.24l-.11-.13c-.1-.12-.23-.27-.44-.47l-.14-.13c-.21-.18-.44-.35-.73-.54-.11-.08-.25-.17-.45-.29l-.09-.06-.21-.15c-.12-.09-.27-.19-.44-.3-.26-.18-.47-.31-.6-.37-.2-.12-.4-.21-.59-.29-.21-.09-.41-.16-.63-.22l-.14-.04-.56-.1h-.36l-1.75-.66-.05.08c-.22-.04-.44-.07-.67-.08-.09,0-.18,0-.28,0-.21,0-.41.02-.61.04-.41-.3-.87-.55-1.38-.73-.56-.2-1.15-.3-1.74-.3-.07,0-.14.01-.22.02-.4-.27-.84-.49-1.32-.61-.34-.09-.69-.13-1.05-.13-.74,0-1.48.2-2.13.59-.2.12-.38.25-.55.39-.01-.01-.02-.03-.03-.04-.87-.93-2.03-1.44-3.28-1.44-.18,0-.36.01-.55.03-.74.09-3.19.64-4.07,3.76-.12.01-.23.01-.35.03-.53.09-1.02.27-1.47.52-.13,0-.25-.03-.38-.03s-.26,0-.38.02c-.88-.82-1.98-1.35-3.19-1.54-.33-.05-.67-.08-1.01-.08-.7,0-1.43.11-2.17.33-.69.21-1.38.52-2.03.92-.75.46-1.39,1.01-1.91,1.65-.47.58-.79,1.27-.92,1.95-.14.7-.1,1.43.12,2.12.24.8.68,1.49,1.28,2.02.08.63.18,1.18.29,1.7,0,0,0,0,0,0-.05.05-.1.09-.15.14-.67.67-1.17,1.4-1.53,1.94l-.04.06c-1.53,2.32-2.69,4.8-3.43,7.31-.35,1.12-.66,2.3-.97,3.6,0,0,0,.01,0,.02l-2.88-.15h-6.97s-10.58.35-10.58.35h-1.68s-1.58.02-1.58.02c-.09,0-.36,0-.84.08-1.13.18-2.19.73-2.94,1.5-.76.76-1.28,1.72-1.5,2.77-.21,1.03-.13,2.09.24,3.04.4,1.06,1.14,1.99,2.04,2.59.85.58,1.71.77,2,.83l4.62,1.05c1.13.25,4.01.93,6.63,1.54-.68.53-1.28,1.1-1.86,1.65-.73.71-1.4,1.42-2.04,2.11l-.36.38-1.24,1.31c-.4.42-.85.9-1.25,1.43-.98,1.24-1.75,2.55-2.3,3.91-.3.74-.54,1.5-.71,2.3-.09.44-.16.85-.21,1.26-.04.39-.08.88-.06,1.57-1.86,1.2-3.61,2.5-5.27,3.88l-.26-1.39.33-.89-.41-1.27-.44-1.27-.59-.43-.2-.81.24-.66-.08-.87c-.04-.5-.18-.92-.35-1.28,1.33-1.35,2.23-3.08,2.58-5.01.46-2.54-.08-5.14-1.52-7.32-1.27-1.91-3.1-3.3-5.18-3.99l.5-.47.26-1.67v-.03c.92-1.57,1.15-3.47.57-5.23-.72-2.16-2.56-3.78-4.8-4.22l-.18-.04-4.66-.46v-.06s-3.89-.32-3.89-.32h-.11s-.04-.01-.06-.01h-.05c-.07-.01-.14,0-.21-.01-.12,0-.24-.02-.35-.02-2.32,0-4.45,1.18-5.69,3.15-.81,1.29-1.14,2.79-.99,4.25-.69.29-1.43.67-2.19,1.17-.07.04-.14.08-.2.12-.08.05-.15.12-.23.17-.17.12-.34.24-.5.37-1.18.89-2.19,1.94-3.02,3.09-.03.05-.07.09-.1.14-.17.25-.34.49-.5.75-.2.31-.39.64-.56.97,0,0,0,0,0,.01-.62,1.19-1.1,2.53-1.38,4.02-.01.07-.03.15-.04.22-.06.35-.11.7-.15,1.06-.03.26-.04.51-.06.77,0,.02,0,.04,0,.06-.05.97-.02,1.95.12,2.93.03.26.06.52.11.78.12.76.39,1.72.8,2.76.07.18.14.37.22.55.11.25.23.51.36.77.06.11.1.23.16.34-.04.14-.08.29-.12.43l-.31,1.51c-.25,1.97.11,4.18,1.6,6.44.12.19.25.37.38.54,1.08,1.45,2.5,2.56,4.1,3.24,1.21.52,2.51.81,3.85.81h0c.43,0,.86-.04,1.29-.1.06,0,.13-.02.19-.03.17-.03.34-.06.5-.09.11-.02.21-.05.32-.08.14-.03.28-.07.41-.11.23-.07.46-.15.69-.23.02,0,.04-.01.06-.02l1.5-.58,8.56,5.63.14.08c.47.26.94.45,1.4.6-.79,1.09-1.52,2.21-2.2,3.36-1.29.19-2.75.29-3.64.32-.41,0-.81.01-1.2.01-2.95,0-5.2-.26-6.86-.6.26-1.07.16-2.23-.33-3.33-.99-2.22-3.34-3.71-5.83-3.71-1.53,0-3.02.54-4.31,1.57-2.04,1.63-3.16,3.85-3.13,6.26.02,2.48,1.28,4.92,3.37,6.53,2.59,1.99,9.59,4.26,15.88,4.8-1.24,3.14-3.19,8.09-6.26,15.89l-.06.17c-.21.62-.53,1.46-.95,2.43-2.58-2.13-5.71-3.45-9.32-3.91-1-.13-1.99-.19-2.94-.19-6.3,0-11.34,2.77-14.58,8.01-4.2,6.8-3.18,11.86-1.59,14.9,3,5.75,9.91,8.15,13.82,8.37.37.02.74.03,1.11.03,6.98,0,12.24-3.6,16.04-7.36,1.81,1.58,3.83,2.38,6.02,2.38h0c.97,0,1.97-.16,2.98-.49l-.3-2.42c1.42,1.86,3.53,3.43,6.69,4.1.79.17,1.6.25,2.4.25,2.05,0,5.11-.57,8.32-3.14,1.14,1.66,2.79,2.7,4.67,2.85.2.02.4.02.6.02,3.53,0,6.51-2.3,8.9-4.8.33.48.7.94,1.12,1.37,2.77,2.82,6.42,3.43,7.6,3.43h3.46s.01-.12.01-.12c.58.15,1.14.22,1.68.22h.18s3.83-.24,3.83-.24c.76.21,1.34.3,1.56.32.34.04.68.06,1.02.06,1.05,0,2.31-.19,3.68-.78l.7-.04-.23-.17c1.23-.6,2.54-1.52,3.87-2.91,1.41,1.68,3.45,3.07,6.36,3.68.79.17,1.6.25,2.4.25,2.05,0,5.11-.57,8.32-3.14,1.14,1.66,2.79,2.7,4.67,2.85.2.02.4.02.6.02h0c2.35,0,4.46-1.03,6.31-2.45.2.26.41.5.64.73l.5.45c1.29,1.05,2.94,1.68,4.74,1.68s3.44-.63,4.72-1.68l1.98-2.51c.46-.96.72-2.03.72-3.17,0-2.85-1.65-5.32-4.05-6.54.62-1,1.19-1.98,1.7-2.96l.45-.85v-.96c0-.79-.25-2.75-2.54-4.01l-.88-.48h-1c-.47,0-.93.07-1.37.21.25-2.54-.33-4.98-1.74-7.2-2.07-3.26-5.77-5.12-10.16-5.12-.53,0-1.08.03-1.64.08,2.77-1.26,5.05-2.54,6.81-3.64,8.2-5.11,7.98-6.89,7.82-8.32l-.41-3.43h-1.48s-.31-2.61-.31-2.61h-5.13s-1.15,1.22-1.15,1.22c-5.68,5.98-13.71,8.49-20.54,9.47l-.02-1.81-.04-1.5.75.22c1.33.39,2.84.83,4.56.97h.09s.17.01.17.01c.15,0,.3.01.45.01.83,0,1.59-.15,2.32-.45l.16-.07.16-.08c1.12-.59,1.75-1.37,2.11-1.8l.07-.09c.42-.54.75-1.09,1.06-1.72.37-.8.51-1.52.61-2.05.14-.79.23-1.53.31-2.24.72-.57,1.27-1.35,1.57-2.25.2-.09.42-.21.64-.36l.21-.14.13-.12c.27-.23.51-.48.71-.76.22-.31.4-.63.53-.98h0c.16-.38.24-.7.29-.92l.03-.12s.06-.29.07-.37c.3-.03.58-.07.86-.12.36-.07.9-.19,1.48-.45,1-.42,1.85-1.19,2.4-2.19l.04-.08.04-.08c.57-1.16.63-2.24.66-2.88v-.07c.02-.41,0-.8-.02-1.18l.49.28c.25.14.52.29.85.45.69.35,1.36.58,1.93.76,1.12.34,2.31.51,3.53.51h0c1.43,0,2.89-.23,4.37-.7,3.68-1.19,7.11-3.47,10.52-7.03,1.64-1.77,2.84-3.36,3.75-5.02l.04-.08c.11-.21.21-.42.31-.62.08-.16.16-.32.27-.53l.05-.1c.22-.41.49-.92.74-1.56.46-1.23.56-2.44.29-3.59ZM129.26,38.16s0,0,0,0l.13-.47-.13.47Z"/>
          <path class="cls-17" d="M153.27,43.64c-.09-.42-.38-.75-.7-.99.01-.18-.06-.11-.06-.14-.02-.01-.04-.02-.06-.03l-.1-.04-.2-.08c-.27-.09-.55-.18-.82-.26l-1.65-.49c-2.2-.63-4.41-1.23-6.62-1.84-4.41-1.22-8.83-2.42-13.26-3.6,4.42,1.21,8.83,2.42,13.24,3.66,2.2.62,4.4,1.26,6.59,1.92l1.64.51c.27.09.54.18.81.27l.09.04h-.11c-1.14.02-2.28-.03-3.43-.08-2.29-.09-4.57-.24-6.86-.38-2.28-.17-4.59-.22-6.88-.2-2.29.02-4.59.1-6.88.21l-.86.05c-.31.02-.61.07-.91.13-.59.13-1.14.31-1.69.5-1.1.39-2.16.82-3.22,1.25-4.22,1.72-8.56,3.19-13.05,3.63-2.23.24-4.49.22-6.71-.06-2.19-.26-4.32-.99-6.43-1.79-4.2-1.66-8.23-3.8-12.22-6.01l-2.99-1.68s-2.22-1.26-3.04-1.69c-.57-.3-11.28-2.86-13.51-3.35h0c-.57-.13-.48-.97.1-.98l8.95-.4,6.86-.14,6.02.17c.16-.01.27-.04.4-.09.24-.1.46-.27.6-.48.07-.11.13-.23.17-.35.02-.06.03-.13.04-.18l.02-.1.07-.42.15-.84c.1-.56.21-1.11.33-1.67.24-1.11.5-2.21.81-3.3.59-2.17,1.51-4.23,2.7-6.14,1.1-1.93,3.05-3.15,5.12-4,2.09-.83,4.32-1.3,6.58-1.59,2.26-.27,4.54-.39,6.8-.19,1.13.08,2.26.27,3.37.5,1.11.26,2.2.59,3.25,1.02,2.1.87,4.06,2.11,5.69,3.7,1.63,1.59,2.99,3.49,3.78,5.64.19.54.35,1.09.35,1.66.04.57.15,1.14.25,1.7.21,1.13.46,2.24.72,3.36.26,1.12.53,2.23.8,3.34.07.28.13.56.23.83.1.27.24.52.41.75.33.46.79.83,1.31,1.07-.02,0-.05,0-.07,0h-.04s.02,0,.02,0c0,0-.02,0-.02,0h.12s0,.01,0,.01c.15.07.31.13.48.18-.16-.05-.32-.11-.47-.18h0s-.01,0-.01,0c-.52-.24-.98-.61-1.31-1.08-.17-.23-.3-.49-.4-.75-.1-.27-.16-.55-.23-.83-.27-1.11-.53-2.23-.79-3.34-.25-1.12-.49-2.24-.7-3.36-.1-.56-.2-1.13-.24-1.7,0-.58-.16-1.14-.34-1.68-.78-2.16-2.11-4.1-3.74-5.72-1.63-1.62-3.59-2.91-5.7-3.82-1.06-.44-2.16-.81-3.27-1.1-1.12-.26-2.26-.49-3.41-.59-2.29-.26-4.61-.19-6.9.03-2.29.23-4.58.65-6.78,1.47-1.09.42-2.16.93-3.13,1.61-.49.34-.95.73-1.37,1.16-.43.42-.78.95-1.1,1.41-1.28,1.95-2.3,4.09-2.96,6.32-.34,1.11-.64,2.23-.9,3.35-.13.56-.26,1.13-.38,1.69l-.17.85-.08.43-.02.11s0,.02,0,.02c0,.01-.01.02-.02.03-.01.02-.04.03-.06.04,0,0-.04,0-.02,0l-6.01-.31h-6.87s-10.51.35-10.51.35h-1.72s-1.5.02-1.5.02h-.11s-.14.01-.21.03c-.3.05-.6.19-.83.42-.23.23-.37.51-.43.8-.06.29-.04.6.07.89.11.29.32.56.59.73.26.18.6.24.68.26l.42.1.84.19,3.35.76c2.23.5,11.19,2.62,11.71,2.73.52.11.96.25,1.41.48.76.39,1.54.83,2.33,1.27-.17.39-.33.8-.47,1.2l-.13.4-.06.2s-.01.04-.01.04c0,0,0,0,0,0,0,0,0,0,0,0-.07.08-.34.18-.58.24-.5.13-1.04.2-1.58.28-.54.08-1.09.14-1.64.24-.28.05-.56.11-.85.2-.31.1-.57.24-.83.38-1.02.58-1.85,1.35-2.65,2.13-.8.78-1.55,1.59-2.3,2.39l-1.13,1.19c-.38.41-.78.82-1.12,1.28-.71.9-1.31,1.89-1.75,2.96-.22.54-.39,1.09-.52,1.66-.06.29-.11.58-.14.87-.03.3-.05.57-.04.93v.03s.01.05.01.05c.13.54.25,1.04.48,1.6.03.08.07.15.12.23.04.08.13.21.21.28.03.03.05.04.08.07.27-.11.55-.19.83-.28.34-.11.68-.26,1.05-.25-.08-.04-.16-.08-.23-.1-.31-.11-.57-.16-.72-.23-.08-.03-.12-.06-.13-.08-.02-.02,0,0-.02-.03-.02-.02-.04-.07-.06-.11-.17-.38-.31-.87-.42-1.33,0-.19,0-.45.02-.67.02-.25.06-.5.11-.76.1-.5.24-1,.43-1.49.37-.97.9-1.89,1.54-2.73.31-.43.67-.81,1.03-1.22l1.12-1.22c.74-.82,1.46-1.64,2.22-2.41.76-.77,1.55-1.52,2.43-2.04.22-.13.45-.25.66-.32.23-.08.49-.14.75-.19.52-.1,1.06-.18,1.61-.27.55-.09,1.09-.18,1.66-.34.14-.04.28-.09.43-.15.15-.06.3-.14.47-.3.04-.05.08-.09.11-.16.02-.03.03-.07.04-.1.01-.04.01-.04.02-.06l.06-.19.12-.39c.12-.37.25-.73.4-1.09.02.01.04.02.06.04l3.01,1.67c4.04,2.2,8.15,4.29,12.49,5.94,2.17.8,4.43,1.51,6.81,1.74,2.33.24,4.68.19,7-.11,4.64-.57,9.04-2.19,13.24-4.01,1.05-.45,2.1-.91,3.16-1.31.53-.2,1.06-.39,1.59-.51.26-.06.52-.11.77-.13,0,.36,0,.71-.02,1.07-.04,1.23-.1,2.46-.19,3.68h0s0,0,0,0c.1.91.19,1.83.13,2.74-.03.22-.03.48-.19.62-.04.03-.08.05-.13.08-.02,0-1.83.65-1.82.67-.1.04-.19.08-.28.13-.03.02-.05.04-.07.06-.03.03-.03.07-.03.1,0,.06,0,.12,0,.18.02.23.05.46.08.68.07.45.15.91.23,1.36.17.9.33,1.8.53,2.7.18.9.32,1.8.4,2.71.03.45.06.91.04,1.36-.03.45-.07.91-.27,1.3-.19.39-.66.51-1.1.6-.44.08-.9.1-1.35.1-.91,0-1.82-.08-2.72-.2l-.15-.02.02.15c.07.58.11,1.17.12,1.76,0,.59-.02,1.18-.15,1.74-.04.14-.07.28-.13.4l-.04.1s0,0-.02.03c-.03.02-.09.04-.15.05-.26.04-.56.02-.85,0-.58-.06-1.16-.16-1.74-.29l-.33-.07.13.32c.26.65.5,1.35.58,2.03,0,.16.01.34-.03.46-.03.1-.12.21-.24.26-.12.06-.28.07-.48.11-.19.03-.43.13-.6.31-.07.07-.16.23-.18.32-.03.1-.05.2-.07.29-.04.19-.07.37-.1.55l-.15,1.08c-.1.72-.19,1.43-.33,2.13-.07.35-.15.69-.29.97-.15.3-.35.59-.56.85-.21.26-.47.52-.69.63-.22.09-.58.09-.92.06-1.38-.14-2.76-.61-4.14-1.04-1.38-.44-2.76-.89-4.18-1.28-.36-.09-.71-.19-1.1-.25-.1-.01-.2-.03-.32-.03-.05,0-.13,0-.21,0-.03,0-.12.03-.18.05l-.05.02s-.06.04-.09.06c-.06.05-.11.12-.14.17-.03.08-.05.16-.07.23-.01.07-.01.11-.02.16-.01.1-.02.2-.03.29-.05.75-.05,1.47-.06,2.21l.03,4.35-.05,4.34v.09s.03.1.03.1l.55,1.62h-.12s.04.08.05.12c.45.01.9.01,1.35.01l-.74-2.04-.05-4.25-.12-4.34c-.01-.72-.02-1.45,0-2.14,0-.07,0-.13.01-.19.03,0,.05,0,.08,0,.33.05.68.13,1.02.21,1.39.35,2.78.77,4.17,1.18,1.39.4,2.79.85,4.31.98.38.01.77.05,1.23-.14.42-.22.66-.52.9-.82.23-.3.44-.62.61-.98.17-.37.25-.75.32-1.11.13-.73.21-1.45.29-2.17l.13-1.07c.02-.18.05-.35.08-.52.02-.09.03-.17.06-.24.02-.08.03-.09.08-.15.08-.09.19-.14.35-.18.16-.04.36-.06.57-.16.21-.1.38-.29.46-.53.07-.23.04-.42.03-.62-.09-.65-.29-1.24-.53-1.82.48.08.96.16,1.45.2.3.02.6.04.93-.01.08-.02.17-.04.27-.1.02-.02.05-.03.07-.07.02-.03.04-.06.05-.08l.04-.11c.07-.15.1-.3.14-.45.12-.6.14-1.21.13-1.81-.01-.55-.06-1.1-.13-1.64.87.1,1.73.16,2.61.15.46,0,.92-.04,1.38-.12.23-.04.46-.1.68-.21.23-.08.41-.28.53-.49.22-.44.24-.91.27-1.37.02-.46-.02-.92-.06-1.38-.09-.92-.25-1.82-.44-2.72-.21-.89-.38-1.79-.55-2.69-.08-.45-.16-.9-.23-1.35-.02-.42-.3-1.02.29-1.1.05.05.1.09.15.14,1.34,1.22,2.79,2.28,4.28,3.26.75.47,1.51.95,2.29,1.37l.58.33c.19.11.38.22.61.32.43.22.89.39,1.34.53,1.87.56,3.84.39,5.6-.16,3.53-1.14,6.42-3.42,8.87-5.98,1.21-1.3,2.33-2.69,3.2-4.26.21-.41.38-.79.59-1.17.21-.39.42-.78.58-1.2.16-.42.25-.89.14-1.34ZM152.88,44.88c-.19.38-.43.74-.67,1.11-.25.37-.47.77-.69,1.12-.95,1.43-2.14,2.71-3.39,3.89-1.25,1.18-2.61,2.25-4.06,3.16-1.44.91-2.97,1.68-4.57,2.1-1.59.42-3.26.52-4.75.02-.37-.13-.74-.27-1.08-.46-.17-.08-.36-.19-.54-.3l-.56-.33c-.75-.43-1.46-.91-2.19-1.37-1.24-.83-2.43-1.72-3.53-2.69.04-.02.08-.05.12-.08.18-.18.18-.44.21-.66.05-.92-.05-1.83-.15-2.74.08-1.23.14-2.45.17-3.68,0-.36.01-.72.01-1.07,0,0,0,0,0,0l.85-.07c2.28-.17,4.56-.3,6.84-.37,2.29-.07,4.56-.08,6.85.04l6.87.24c1.15.03,2.29.07,3.44.04h.22s.11-.02.11-.02c.02,0,.04,0,.06-.01.04-.02,0,.02.1-.05,0,0,0-.01,0-.02.29.28.52.62.56,1.01.05.42-.07.83-.26,1.21Z"/>
          <g>
            <g>
              <path class="cls-13" d="M136.77,106.92c-.38,0-.83.41-1.33,1.23,0,.16-1,1.61-3.01,4.34-.72,1.17-2.12,2.85-4.21,5.05-1.5,1.66-3.22,2.74-4.56,2.61-1.91-.19-1.93-2.3-1.53-4.15.61-2.83,4.42-13.4,4.42-15.49-.17-.35-.45-.52-.81-.52l-.31.21c0,1.1-.79,3.65-2.38,7.64-.77,1.97-1.73,3.7-2.88,5.18-1.12,1.75-2.46,3.22-4.03,4.42-1.33,1.24-4.14,2.16-5.78,1.47-1.64-.69-2.47-2.28-2.7-4.66-.42-4.41,3.18-9.07,6.31-12.4,3.37-3.37,6.57-5.05,9.6-5.05h.94c1.24,0,3.05.28,4.21,1.96,3.01,4.34.02,9.3-2.67,11.15v.21l.21.31c.94,0,2.72-1.53,3.45-2.69,3.03-4.75,1.71-8,.68-9.61-.99-1.56-3.38-3.79-8.4-3.23-5.02.56-9.82,2.35-14.65,7.47-.88.94-4.03,4.58-5.05,8.73-1.75,3.23-5.77,9.03-8.07,9.3-.9.1-1.9-.57-1.76-2.19.14-1.58,1.09-4.72,2.59-8.01,3.2-6.99,3.52-10.86,3.56-12.12.05-1.54-.55-2.56-2.93-2.83-.94-.1-2.98.15-4.06,2.04-.03.04.18.2.55.45,0,0,.81-.72,1.83-.86,2.25-.33,0,5.75-3.84,11.57-4.43,6.7-3.29,10.31-1.27,12.08,1.33,1.16,3.16,1.52,3.63,1.58,2.77.32,5.36-1.74,7.46-4.74.77-.98,1.45-1.9,2.04-2.77.04.33.09.66.17.99,1.14,4.77,3.99,5.97,6.1,6.41,4.14.87,7.29-1.91,8.16-2.7,2.48-2.16,3.88-3.67,4.21-4.53h.21c-.19.65-.54,2.6-.21,4.13s1.29,2.88,2.51,2.97c3.27.25,6.45-3.47,9.09-6.72,2.06-2.6,3.74-5.15,5.05-7.64,0-.21-.17-.41-.52-.6Z"/>
              <path class="cls-26" d="M136.77,106.92c-.38,0-.83.41-1.33,1.23,0,.16-1,1.61-3.01,4.34-.72,1.17-2.12,2.85-4.21,5.05-1.5,1.66-3.22,2.74-4.56,2.61-1.91-.19-1.93-2.3-1.53-4.15.61-2.83,4.42-13.4,4.42-15.49-.17-.35-.45-.52-.81-.52l-.31.21c0,1.1-.79,3.65-2.38,7.64-.77,1.97-1.73,3.7-2.88,5.18-1.12,1.75-2.46,3.22-4.03,4.42-1.33,1.24-4.14,2.16-5.78,1.47-1.64-.69-2.47-2.28-2.7-4.66-.42-4.41,3.18-9.07,6.31-12.4,3.37-3.37,6.57-5.05,9.6-5.05h.94c1.24,0,3.05.28,4.21,1.96,3.01,4.34.02,9.3-2.67,11.15v.21l.21.31c.94,0,2.72-1.53,3.45-2.69,3.03-4.75,1.71-8,.68-9.61-.99-1.56-3.38-3.79-8.4-3.23-5.02.56-9.82,2.35-14.65,7.47-.88.94-4.03,4.58-5.05,8.73-1.75,3.23-5.77,9.03-8.07,9.3-.9.1-1.9-.57-1.76-2.19.14-1.58,1.09-4.72,2.59-8.01,3.2-6.99,3.52-10.86,3.56-12.12.05-1.54-.55-2.56-2.93-2.83-.94-.1-2.98.15-4.06,2.04-.03.04.18.2.55.45,0,0,.81-.72,1.83-.86,2.25-.33,0,5.75-3.84,11.57-4.43,6.7-3.29,10.31-1.27,12.08,1.33,1.16,3.16,1.52,3.63,1.58,2.77.32,5.36-1.74,7.46-4.74.77-.98,1.45-1.9,2.04-2.77.04.33.09.66.17.99,1.14,4.77,3.99,5.97,6.1,6.41,4.14.87,7.29-1.91,8.16-2.7,2.48-2.16,3.88-3.67,4.21-4.53h.21c-.19.65-.54,2.6-.21,4.13s1.29,2.88,2.51,2.97c3.27.25,6.45-3.47,9.09-6.72,2.06-2.6,3.74-5.15,5.05-7.64,0-.21-.17-.41-.52-.6Z"/>
            </g>
            <g>
              <path class="cls-31" d="M61.11,59.16c-7.82,5-12.62,11.02-15.47,16.36-1.84.47-4.63.7-6.06.73-9.41.22-15.43-1.98-15.7-4.94-.11-1.22,1.34-1.77,2-1.63,1.41.3,1.58,1.52,1.58,1.52.99-1.11-1.54-3.88-4.08-1.85-2.69,2.15-1.76,5.17.19,6.67,2.31,1.78,12.33,4.99,19.27,3.89-.05.12-8.4,21.31-8.4,21.31-.56,1.65-1.82,4.7-3.61,7.95-.76-1.06-1.7-2.15-2.93-3.29-2.45-2.28-5.27-3.21-7.9-3.55-6.53-.84-11.03,1.65-13.71,6-7.37,11.94,4.23,17.07,9.13,17.34,8.01.44,13.5-5.08,17.06-9.36.72,1.06,1.4,1.98,2.05,2.63,1.93,1.92,3.83,2.05,5.63,1.47,0,0-2.38-.16-4.56-3.08-.67-.9-1.2-1.83-1.7-2.78.33-.41.64-.8.93-1.15,5.87-7.14,9.76-20.31,9.76-20.31,1.36-4.73,2.34-7.94,2.93-9.63.36-1.25.81-2.62,1.28-3.93,0,0,.69-1.87.91-2.41,1.06-.28,2.14-.58,3.25-.93,3.16-.98,13.89-3.77,17.78-10.25,3.7-6.17-2.1-11.61-9.63-6.79ZM21.71,120.15c-2.38,1.54-8.09,2.57-11.6-.81-1.81-1.75-4.33-8.81,2.85-13.21,2.27-1.39,7.84-2.93,13.13,1.5,1.12.94,2.23,2.39,3.31,3.98-2.09,3.35-4.7,6.61-7.69,8.55ZM69.14,63.24c-1.25,3.77-12.01,10.25-18.69,11.57,1.83-4.25,5.6-10.31,12.88-13.54,6.57-2.91,6.02,1.33,5.8,1.98Z"/>
              <g class="cls-25">
                <path class="cls-4" d="M61.11,59.16c-7.82,5-12.62,11.02-15.47,16.36-1.84.47-4.63.7-6.06.73-9.41.22-15.43-1.98-15.7-4.94-.11-1.22,1.34-1.77,2-1.63,1.41.3,1.58,1.52,1.58,1.52.99-1.11-1.54-3.88-4.08-1.85-2.69,2.15-1.76,5.17.19,6.67,2.31,1.78,12.33,4.99,19.27,3.89-.05.12-8.4,21.31-8.4,21.31-.56,1.65-1.82,4.7-3.61,7.95-.76-1.06-1.7-2.15-2.93-3.29-2.45-2.28-5.27-3.21-7.9-3.55-6.53-.84-11.03,1.65-13.71,6-7.37,11.94,4.23,17.07,9.13,17.34,8.01.44,13.5-5.08,17.06-9.36.72,1.06,1.4,1.98,2.05,2.63,1.93,1.92,3.83,2.05,5.63,1.47,0,0-2.38-.16-4.56-3.08-.67-.9-1.2-1.83-1.7-2.78.33-.41.64-.8.93-1.15,5.87-7.14,9.76-20.31,9.76-20.31,1.36-4.73,2.34-7.94,2.93-9.63.36-1.25.81-2.62,1.28-3.93,0,0,.69-1.87.91-2.41,1.06-.28,2.14-.58,3.25-.93,3.16-.98,13.89-3.77,17.78-10.25,3.7-6.17-2.1-11.61-9.63-6.79ZM21.71,120.15c-2.38,1.54-8.09,2.57-11.6-.81-1.81-1.75-4.33-8.81,2.85-13.21,2.27-1.39,7.84-2.93,13.13,1.5,1.12.94,2.23,2.39,3.31,3.98-2.09,3.35-4.7,6.61-7.69,8.55ZM69.14,63.24c-1.25,3.77-12.01,10.25-18.69,11.57,1.83-4.25,5.6-10.31,12.88-13.54,6.57-2.91,6.02,1.33,5.8,1.98Z"/>
              </g>
            </g>
            <g>
              <path class="cls-27" d="M62.25,94.9c5.02-.56,7.41,1.67,8.4,3.23,1.03,1.61,2.34,4.86-.68,9.61-.74,1.16-2.51,2.69-3.45,2.69l-.21-.31v-.21c2.69-1.85,5.68-6.8,2.67-11.15-1.16-1.68-2.97-1.96-4.21-1.96h-.94c-3.04,0-6.24,1.68-9.6,5.05-3.12,3.33-6.73,8-6.31,12.4.23,2.37,1.06,3.97,2.7,4.66,1.64.69,4.46-.23,5.78-1.47,1.57-1.2,2.91-2.68,4.03-4.42,1.15-1.48,2.11-3.21,2.88-5.18,1.59-4,2.38-6.54,2.38-7.64l.31-.21c.37,0,.64.17.81.52,0,2.09-3.81,12.66-4.42,15.49-.4,1.85-.38,3.97,1.53,4.15,1.35.13,3.06-.95,4.56-2.61,2.09-2.2,3.5-3.88,4.21-5.05,2.01-2.74,3.01-4.19,3.01-4.34.51-.82.95-1.23,1.33-1.23.35.19.52.39.52.6-1.31,2.5-2.99,5.04-5.05,7.64-2.64,3.24-5.82,6.96-9.09,6.72-1.21-.09-2.17-1.44-2.51-2.97-.34-1.53.02-3.49.21-4.13h-.21c-.33.86-1.74,2.36-4.21,4.53-.87.79-4.03,3.57-8.16,2.7-2.11-.45-4.96-1.64-6.1-6.41-1.37-5.74,3.96-11.95,5.16-13.22,4.83-5.12,9.63-6.91,14.65-7.47Z"/>
              <g class="cls-25">
                <path class="cls-16" d="M62.25,94.9c5.02-.56,7.41,1.67,8.4,3.23,1.03,1.61,2.34,4.86-.68,9.61-.74,1.16-2.51,2.69-3.45,2.69l-.21-.31v-.21c2.69-1.85,5.68-6.8,2.67-11.15-1.16-1.68-2.97-1.96-4.21-1.96h-.94c-3.04,0-6.24,1.68-9.6,5.05-3.12,3.33-6.73,8-6.31,12.4.23,2.37,1.06,3.97,2.7,4.66,1.64.69,4.46-.23,5.78-1.47,1.57-1.2,2.91-2.68,4.03-4.42,1.15-1.48,2.11-3.21,2.88-5.18,1.59-4,2.38-6.54,2.38-7.64l.31-.21c.37,0,.64.17.81.52,0,2.09-3.81,12.66-4.42,15.49-.4,1.85-.38,3.97,1.53,4.15,1.35.13,3.06-.95,4.56-2.61,2.09-2.2,3.5-3.88,4.21-5.05,2.01-2.74,3.01-4.19,3.01-4.34.51-.82.95-1.23,1.33-1.23.35.19.52.39.52.6-1.31,2.5-2.99,5.04-5.05,7.64-2.64,3.24-5.82,6.96-9.09,6.72-1.21-.09-2.17-1.44-2.51-2.97-.34-1.53.02-3.49.21-4.13h-.21c-.33.86-1.74,2.36-4.21,4.53-.87.79-4.03,3.57-8.16,2.7-2.11-.45-4.96-1.64-6.1-6.41-1.37-5.74,3.96-11.95,5.16-13.22,4.83-5.12,9.63-6.91,14.65-7.47Z"/>
              </g>
            </g>
            <path class="cls-17" d="M65.09,88.94c4.26,2.32,10.75,2.43,13.9,1.26,0,0,2.36-6.22-4.11-19.06-.31-.61,10.35-9.21,10.65-9.21h.13c2.99,14.02-2.57,27.73-2.57,27.73,0,0,24.77,5.37,49.52-10.14.28-.17-7.86,8.04-23.75,11.87-9.81,2.36-26.94,1.86-26.94,1.86,0,0-1.3,4.31-3.52,12.58-.57,2.12-3.91,14.2,2.96,16.04.57.15-6.89-.36-6.76-7.52.08-4.69,4.01-21,4.01-21-1.53.3-9.73.21-13.52-4.42Z"/>
            <path class="cls-17" d="M71.46,88.57c4.49,2.26,13.56,1.04,15.05-.07,0,0,1.22-5.05-4.57-17.25-.26-.55,10.35-9.21,10.65-9.21h.13c.89.42,2.63,12.42-.92,25.7,0,0,25.15,3.77,39.02-10.84.23-.24-3.74,8.53-18.37,12.08-10.69,2.59-21.65,2.71-21.65,2.71,0,0-4.21,7.33-6.57,20.19-1.36,7.41,2.32,10.12,2.32,10.12,0,0-3.26.21-4.41-4.93-1.85-8.27,5.49-24.99,5.49-25.32,0,0-10.56,1.82-16.17-3.17Z"/>
            <path class="cls-12" d="M139.2,118.83c0,1.94-1.56,3.47-3.54,3.47s-3.56-1.54-3.56-3.47,1.58-3.45,3.58-3.45,3.52,1.52,3.52,3.45ZM132.99,118.83c0,1.54,1.16,2.76,2.7,2.76,1.49.02,2.63-1.22,2.63-2.74s-1.14-2.78-2.67-2.78-2.65,1.24-2.65,2.76ZM135.11,120.62h-.8v-3.45c.32-.04.76-.11,1.33-.11.65,0,.95.11,1.18.27.21.15.36.4.36.74,0,.42-.32.69-.72.82v.04c.34.11.51.38.61.84.11.53.19.72.25.84h-.84c-.11-.13-.17-.42-.27-.84-.06-.36-.27-.53-.72-.53h-.38v1.37ZM135.14,118.69h.38c.44,0,.8-.15.8-.51,0-.32-.23-.53-.74-.53-.21,0-.36.02-.44.04v.99Z"/>
          </g>
          <g>
            <g>
              <path class="cls-7" d="M39.24,37.14l5.53-6.16c1.28-1.42.52-3.69-1.36-4.06l-8.47-.83c-2.21-.22-3.8,2.06-2.84,4.06l3.18,6.6c.85,1.43,2.84,1.63,3.96.39Z"/>
              <path class="cls-7" d="M34.81,26.59c.02-.17.05-.34.08-.5-2.18-.18-3.74,2.08-2.79,4.06l3.18,6.6c.85,1.43,2.84,1.63,3.96.39l.08-.09c-3.06-2.47-4.9-6.43-4.5-10.47Z"/>
              <g class="cls-30">
                <path class="cls-3" d="M38.75,36.87s0,.04.02.07c.13.25.5.61,1,.09,0,0,.04-.06.05-.08l.15-1.77.03-.37.07-1s0-.42-.03-.98c-.03-.56-.11-1.27-.23-1.84-.39-1.94-.55-1.11-.59.07-.02-.06-.02.65-.07,1.37-.05.72-.15,1.45-.15,1.45l-.06.84-.03.37-.15,1.78Z"/>
                <path class="cls-3" d="M40.91,34.72s0,.01.02.03c.14.11.5.32.99.18,0,0,.04-.02.05-.03,0-.01.05-.27.1-.65.05-.38.1-.88.12-1.38.06-1,.03-1.99.03-1.99,0,0-.12-.64-.31-1.08-.28-.74-.49-.42-.59.05-.02-.05-.16,1.11-.16,1.11,0,0,.02.94-.04,1.88-.03.47-.07.94-.12,1.29-.05.35-.09.59-.09.6Z"/>
                <path class="cls-3" d="M43.44,32.16s0,0,.02.02c.14.07.51.21.99.17,0,0,.04,0,.05-.01,0,0,.02-.15.06-.35.03-.21.06-.48.1-.76.07-.55.1-1.1.1-1.1,0,0-.09-.36-.24-.62-.21-.43-.46-.27-.59-.02-.02-.03-.23.59-.23.59,0,0-.03.51-.1,1.03-.03.26-.07.52-.1.71-.03.2-.05.33-.05.34Z"/>
                <path class="cls-3" d="M38.18,30.14s-.02,0-.03.03c-.1.16-.19.57.11,1,0,0,.03.04.04.04,0,0,.08,0,.2-.02.13,0,.3-.02.51-.04.42-.03.99-.05,1.56-.06,1.14-.03,2.28-.05,2.28-.05,0,0,.74-.13,1.26-.31.88-.28.49-.49-.05-.59.06-.02-1.3-.16-1.3-.16,0,0-1.12.02-2.25.05-.57.01-1.14.04-1.58.06-.44.02-.74.06-.76.06Z"/>
                <path class="cls-3" d="M38.72,32.1s-.01,0-.02.03c-.07.16-.16.56.09,1,0,0,.03.04.04.04.01,0,.26-.03.61-.06.36-.04.83-.1,1.31-.15.94-.13,1.87-.26,1.87-.26,0,0,.59-.19.99-.4.69-.31.38-.51-.09-.59.04-.03-1.1-.06-1.1-.06,0,0-.91.13-1.83.25-.92.1-1.84.2-1.87.21Z"/>
                <path class="cls-3" d="M38.57,33.97s0,0-.01.03c-.04.16-.09.56.07,1,0,0,.02.04.02.04.03,0,2.28-.32,2.28-.32,0,0,.35-.16.59-.36.4-.29.19-.5-.09-.59.02-.03-.66-.11-.66-.11,0,0-2.17.3-2.2.31Z"/>
              </g>
              <path class="cls-7" d="M43.4,37.66c3.54,5.34,2.25,12.42-2.87,15.81-5.12,3.39-12.14,1.81-15.68-3.54-3.54-5.34-2.26-12.42,2.87-15.81,5.12-3.39,12.14-1.81,15.68,3.54Z"/>
              <path class="cls-6" d="M24.68,42.19c0,1.6.55,2.93,1.23,2.96.69.03,1.25-1.24,1.26-2.85,0-1.6-.54-2.93-1.23-2.96-.69-.03-1.25,1.25-1.26,2.85Z"/>
              <path class="cls-7" d="M25.6,50.93c-1.43-1.72-2.29-3.94-2.52-5.33-1.36-8.38,5.06-12.2,7.14-12.69-7.79,7.38-2.91,15.7-2.91,15.7,0,0-1.34,1.02-1.71,2.31Z"/>
              <path class="cls-7" d="M26.42,51.92l18.03-12,5.5,22s.31,1.64-1.22,2.66c-.9.61-1.64.8-2.94.09l-19.37-12.76Z"/>
              <g class="cls-21">
                <path class="cls-3" d="M45.73,48.01s.02-.04.08-.07c.34-.21,1.03-.39,1.27.6,0,.02.01.1,0,.13l-1.07,2.24-.23.47-.62,1.26s-.29.5-.73,1.16c-.44.66-1.03,1.46-1.58,2.07-1.84,2.07-1.45.96-.66-.5-.06.06.44-.8.87-1.71.44-.91.84-1.86.84-1.86l.52-1.06.22-.47,1.07-2.25Z"/>
                <path class="cls-3" d="M46.83,52.14s0-.02.05-.02c.24-.04.82-.04,1.32.48,0,0,.04.05.04.07,0,.02-.13.36-.34.86-.21.49-.51,1.13-.82,1.76-.63,1.25-1.36,2.43-1.36,2.43,0,0-.6.69-1.14,1.08-.86.7-.89.16-.68-.47-.06.04.58-1.45.58-1.45,0,0,.69-1.12,1.28-2.3.3-.59.57-1.18.77-1.64.18-.46.31-.77.31-.79Z"/>
                <path class="cls-3" d="M48.08,57.01s0,0,.04,0c.22.01.77.11,1.31.5,0,0,.04.04.05.05,0,0-.08.19-.18.47-.11.27-.26.63-.41.99-.31.71-.66,1.4-.66,1.4,0,0-.36.38-.73.58-.56.37-.74,0-.73-.4-.04.02.14-.88.14-.88,0,0,.32-.64.61-1.31.14-.34.28-.67.38-.93.1-.26.17-.44.17-.44Z"/>
                <path class="cls-3" d="M40.3,55.74s-.02-.01-.02-.06c0-.27.17-.82.84-1.13.01,0,.06-.02.08-.02,0,0,.09.07.23.17.15.1.35.24.59.41.49.33,1.16.76,1.84,1.17,1.36.83,2.72,1.66,2.72,1.66,0,0,.81.68,1.3,1.27.86.95.25.94-.47.68.06.06-1.69-.72-1.69-.72,0,0-1.34-.82-2.68-1.64-.67-.42-1.35-.84-1.86-1.18-.51-.34-.86-.6-.88-.61Z"/>
                <path class="cls-3" d="M42.33,53.76s-.01-.01,0-.05c.02-.24.2-.79.82-1.14.01,0,.06-.03.07-.02.01.01.29.21.7.51.41.3.94.7,1.48,1.1,1.04.82,2.07,1.63,2.07,1.63,0,0,.58.64.92,1.19.62.87.09.89-.52.65.03.07-1.37-.7-1.37-.7,0,0-1.02-.8-2.04-1.6-1.04-.77-2.09-1.54-2.12-1.56Z"/>
                <path class="cls-3" d="M43.47,51.39s0,0,0-.04c.06-.22.29-.74.79-1.16,0,0,.05-.03.06-.03.03.03,2.53,2,2.53,2,0,0,.31.44.46.85.28.63-.12.74-.52.65,0,.05-.88-.33-.88-.33,0,0-2.4-1.89-2.44-1.92Z"/>
              </g>
              <path class="cls-7" d="M33.33,47.33l-6.92,4.6,19.38,12.75c1.31.71,2.04.52,2.94-.09,1.52-1.03,1.22-2.66,1.22-2.66l-.02-.12c-6.67,1.9-14.94-5.6-16.6-14.47Z"/>
              <path class="cls-7" d="M49.58,40.86c1.83,2.77,1.17,6.43-1.48,8.19-2.65,1.76-6.29.94-8.12-1.83-1.83-2.77-1.17-6.43,1.48-8.19,2.65-1.76,6.29-.94,8.12,1.83Z"/>
              <path class="cls-6" d="M39.71,44.08c0,.84.29,1.53.65,1.55.36.02.66-.65.66-1.49,0-.84-.29-1.54-.65-1.55-.36-.02-.66.65-.66,1.49Z"/>
              <path class="cls-7" d="M42.21,45.73c1.83,2.77,1.17,6.43-1.48,8.19-2.65,1.76-6.29.94-8.12-1.83-1.83-2.77-1.17-6.43,1.48-8.19,2.65-1.76,6.29-.94,8.12,1.83Z"/>
              <path class="cls-6" d="M32.34,48.95c0,.84.28,1.54.65,1.55.36.02.65-.65.66-1.49,0-.84-.29-1.54-.65-1.55-.36-.02-.66.65-.66,1.49Z"/>
              <path class="cls-7" d="M34.85,50.61c1.83,2.77,1.17,6.43-1.48,8.19-2.65,1.76-6.29.94-8.12-1.83-1.83-2.77-1.17-6.43,1.48-8.19,2.65-1.76,6.29-.94,8.12,1.83Z"/>
              <path class="cls-7" d="M28.32,48.05s-.58.08-1.14.43c-.46.28-.96.65-.96.65,0,0-3.82,3.54-1.03,7.76,1.59,2.4,4.49,3.49,7.13,2.46-.79-.34-2.08-.9-3.14-2.11-4.38-5.02-.86-9.18-.86-9.18Z"/>
              <path class="cls-6" d="M24.95,52.51c0,.84.29,1.54.65,1.55.36.02.65-.65.66-1.49,0-.84-.29-1.54-.65-1.55-.36-.02-.66.65-.66,1.49Z"/>
            </g>
            <g>
              <g>
                <path class="cls-1" d="M39.24,37.14l5.53-6.16c1.28-1.42.52-3.69-1.36-4.06l-8.47-.83c-2.21-.22-3.8,2.06-2.84,4.06l3.18,6.6c.85,1.43,2.84,1.63,3.96.39Z"/>
                <g class="cls-24">
                  <path class="cls-29" d="M34.81,26.59c.02-.17.05-.34.08-.5-2.18-.18-3.74,2.08-2.79,4.06l3.18,6.6c.85,1.43,2.84,1.63,3.96.39l.08-.09c-3.06-2.47-4.9-6.43-4.5-10.47Z"/>
                </g>
                <g class="cls-19">
                  <g>
                    <path class="cls-2" d="M38.75,36.87s0,.04.02.07c.13.25.5.61,1,.09,0,0,.04-.06.05-.08l.15-1.77.03-.37.07-1s0-.42-.03-.98c-.03-.56-.11-1.27-.23-1.84-.39-1.94-.55-1.11-.59.07-.02-.06-.02.65-.07,1.37-.05.72-.15,1.45-.15,1.45l-.06.84-.03.37-.15,1.78Z"/>
                    <path class="cls-2" d="M40.91,34.72s0,.01.02.03c.14.11.5.32.99.18,0,0,.04-.02.05-.03,0-.01.05-.27.1-.65.05-.38.1-.88.12-1.38.06-1,.03-1.99.03-1.99,0,0-.12-.64-.31-1.08-.28-.74-.49-.42-.59.05-.02-.05-.16,1.11-.16,1.11,0,0,.02.94-.04,1.88-.03.47-.07.94-.12,1.29-.05.35-.09.59-.09.6Z"/>
                    <path class="cls-2" d="M43.44,32.16s0,0,.02.02c.14.07.51.21.99.17,0,0,.04,0,.05-.01,0,0,.02-.15.06-.35.03-.21.06-.48.1-.76.07-.55.1-1.1.1-1.1,0,0-.09-.36-.24-.62-.21-.43-.46-.27-.59-.02-.02-.03-.23.59-.23.59,0,0-.03.51-.1,1.03-.03.26-.07.52-.1.71-.03.2-.05.33-.05.34Z"/>
                    <path class="cls-2" d="M38.18,30.14s-.02,0-.03.03c-.1.16-.19.57.11,1,0,0,.03.04.04.04,0,0,.08,0,.2-.02.13,0,.3-.02.51-.04.42-.03.99-.05,1.56-.06,1.14-.03,2.28-.05,2.28-.05,0,0,.74-.13,1.26-.31.88-.28.49-.49-.05-.59.06-.02-1.3-.16-1.3-.16,0,0-1.12.02-2.25.05-.57.01-1.14.04-1.58.06-.44.02-.74.06-.76.06Z"/>
                    <path class="cls-2" d="M38.72,32.1s-.01,0-.02.03c-.07.16-.16.56.09,1,0,0,.03.04.04.04.01,0,.26-.03.61-.06.36-.04.83-.1,1.31-.15.94-.13,1.87-.26,1.87-.26,0,0,.59-.19.99-.4.69-.31.38-.51-.09-.59.04-.03-1.1-.06-1.1-.06,0,0-.91.13-1.83.25-.92.1-1.84.2-1.87.21Z"/>
                    <path class="cls-2" d="M38.57,33.97s0,0-.01.03c-.04.16-.09.56.07,1,0,0,.02.04.02.04.03,0,2.28-.32,2.28-.32,0,0,.35-.16.59-.36.4-.29.19-.5-.09-.59.02-.03-.66-.11-.66-.11,0,0-2.17.3-2.2.31Z"/>
                  </g>
                </g>
              </g>
              <g>
                <path class="cls-32" d="M43.4,37.66c3.54,5.34,2.25,12.42-2.87,15.81-5.12,3.39-12.14,1.81-15.68-3.54-3.54-5.34-2.26-12.42,2.87-15.81,5.12-3.39,12.14-1.81,15.68,3.54Z"/>
                <path class="cls-8" d="M24.68,42.19c0,1.6.55,2.93,1.23,2.96.69.03,1.25-1.24,1.26-2.85,0-1.6-.54-2.93-1.23-2.96-.69-.03-1.25,1.25-1.26,2.85Z"/>
                <g class="cls-23">
                  <path class="cls-28" d="M25.6,50.93c-1.43-1.72-2.29-3.94-2.52-5.33-1.36-8.38,5.06-12.2,7.14-12.69-7.79,7.38-2.91,15.7-2.91,15.7,0,0-1.34,1.02-1.71,2.31Z"/>
                </g>
              </g>
              <path class="cls-1" d="M26.42,51.92l18.03-12,5.5,22s.31,1.64-1.22,2.66c-.9.61-1.64.8-2.94.09l-19.37-12.76Z"/>
              <g class="cls-5">
                <g>
                  <path class="cls-2" d="M45.73,48.01s.02-.04.08-.07c.34-.21,1.03-.39,1.27.6,0,.02.01.1,0,.13l-1.07,2.24-.23.47-.62,1.26s-.29.5-.73,1.16c-.44.66-1.03,1.46-1.58,2.07-1.84,2.07-1.45.96-.66-.5-.06.06.44-.8.87-1.71.44-.91.84-1.86.84-1.86l.52-1.06.22-.47,1.07-2.25Z"/>
                  <path class="cls-2" d="M46.83,52.14s0-.02.05-.02c.24-.04.82-.04,1.32.48,0,0,.04.05.04.07,0,.02-.13.36-.34.86-.21.49-.51,1.13-.82,1.76-.63,1.25-1.36,2.43-1.36,2.43,0,0-.6.69-1.14,1.08-.86.7-.89.16-.68-.47-.06.04.58-1.45.58-1.45,0,0,.69-1.12,1.28-2.3.3-.59.57-1.18.77-1.64.18-.46.31-.77.31-.79Z"/>
                  <path class="cls-2" d="M48.08,57.01s0,0,.04,0c.22.01.77.11,1.31.5,0,0,.04.04.05.05,0,0-.08.19-.18.47-.11.27-.26.63-.41.99-.31.71-.66,1.4-.66,1.4,0,0-.36.38-.73.58-.56.37-.74,0-.73-.4-.04.02.14-.88.14-.88,0,0,.32-.64.61-1.31.14-.34.28-.67.38-.93.1-.26.17-.44.17-.44Z"/>
                  <path class="cls-2" d="M40.3,55.74s-.02-.01-.02-.06c0-.27.17-.82.84-1.13.01,0,.06-.02.08-.02,0,0,.09.07.23.17.15.1.35.24.59.41.49.33,1.16.76,1.84,1.17,1.36.83,2.72,1.66,2.72,1.66,0,0,.81.68,1.3,1.27.86.95.25.94-.47.68.06.06-1.69-.72-1.69-.72,0,0-1.34-.82-2.68-1.64-.67-.42-1.35-.84-1.86-1.18-.51-.34-.86-.6-.88-.61Z"/>
                  <path class="cls-2" d="M42.33,53.76s-.01-.01,0-.05c.02-.24.2-.79.82-1.14.01,0,.06-.03.07-.02.01.01.29.21.7.51.41.3.94.7,1.48,1.1,1.04.82,2.07,1.63,2.07,1.63,0,0,.58.64.92,1.19.62.87.09.89-.52.65.03.07-1.37-.7-1.37-.7,0,0-1.02-.8-2.04-1.6-1.04-.77-2.09-1.54-2.12-1.56Z"/>
                  <path class="cls-2" d="M43.47,51.39s0,0,0-.04c.06-.22.29-.74.79-1.16,0,0,.05-.03.06-.03.03.03,2.53,2,2.53,2,0,0,.31.44.46.85.28.63-.12.74-.52.65,0,.05-.88-.33-.88-.33,0,0-2.4-1.89-2.44-1.92Z"/>
                </g>
              </g>
              <g class="cls-24">
                <path class="cls-29" d="M33.33,47.33l-6.92,4.6,19.38,12.75c1.31.71,2.04.52,2.94-.09,1.52-1.03,1.22-2.66,1.22-2.66l-.02-.12c-6.67,1.9-14.94-5.6-16.6-14.47Z"/>
              </g>
              <g>
                <path class="cls-15" d="M49.58,40.86c1.83,2.77,1.17,6.43-1.48,8.19-2.65,1.76-6.29.94-8.12-1.83-1.83-2.77-1.17-6.43,1.48-8.19,2.65-1.76,6.29-.94,8.12,1.83Z"/>
                <path class="cls-11" d="M39.71,44.08c0,.84.29,1.53.65,1.55.36.02.66-.65.66-1.49,0-.84-.29-1.54-.65-1.55-.36-.02-.66.65-.66,1.49Z"/>
              </g>
              <g>
                <path class="cls-33" d="M42.21,45.73c1.83,2.77,1.17,6.43-1.48,8.19-2.65,1.76-6.29.94-8.12-1.83-1.83-2.77-1.17-6.43,1.48-8.19,2.65-1.76,6.29-.94,8.12,1.83Z"/>
                <path class="cls-10" d="M32.34,48.95c0,.84.28,1.54.65,1.55.36.02.65-.65.66-1.49,0-.84-.29-1.54-.65-1.55-.36-.02-.66.65-.66,1.49Z"/>
              </g>
              <g>
                <path class="cls-22" d="M34.85,50.61c1.83,2.77,1.17,6.43-1.48,8.19-2.65,1.76-6.29.94-8.12-1.83-1.83-2.77-1.17-6.43,1.48-8.19,2.65-1.76,6.29-.94,8.12,1.83Z"/>
                <g class="cls-24">
                  <path class="cls-28" d="M28.32,48.05s-.58.08-1.14.43c-.46.28-.96.65-.96.65,0,0-3.82,3.54-1.03,7.76,1.59,2.4,4.49,3.49,7.13,2.46-.79-.34-2.08-.9-3.14-2.11-4.38-5.02-.86-9.18-.86-9.18Z"/>
                </g>
                <path class="cls-9" d="M24.95,52.51c0,.84.29,1.54.65,1.55.36.02.65-.65.66-1.49,0-.84-.29-1.54-.65-1.55-.36-.02-.66.65-.66,1.49Z"/>
              </g>
            </g>
          </g>
          <g>
            <g>
              <g>
                <path class="cls-17" d="M111.26,4.71c-.15.57-.36,1.43-.64,2.59-.28,1.15-.49,2.02-.64,2.59,0,.04-.03.06-.07.08-.04.02-.07.03-.11.02-.04,0-.06-.03-.08-.07-.02-.04-.03-.07-.02-.11.15-.57.36-1.43.64-2.59.28-1.15.49-2.02.64-2.59,0-.04.03-.06.07-.08.04-.02.07-.03.11-.02.04,0,.06.03.08.07.02.03.03.07.02.11Z"/>
                <path class="cls-17" d="M109.76,10.13c-.06-.02-.12-.07-.15-.13-.04-.07-.05-.15-.03-.22.15-.57.36-1.43.64-2.59.28-1.15.49-2.02.64-2.59.02-.07.07-.14.14-.18.07-.04.15-.05.22-.03.08.02.14.07.18.14.04.07.05.15.03.22-.15.57-.36,1.43-.63,2.58-.28,1.15-.49,2.02-.64,2.59-.02.08-.07.14-.14.18-.07.04-.15.05-.22.03,0,0-.02,0-.02,0Z"/>
              </g>
              <g>
                <path class="cls-17" d="M111.49,9.08c0,.24.02.46.08.66.07.2.16.35.27.46.26.25.59.24,1.01-.03.37-.23.69-.54.96-.94.27-.4.47-.82.59-1.26.13-.44.19-.89.19-1.34,0-.15,0-.26,0-.31-.09.23-.2.44-.32.61-.19.27-.36.46-.5.58-.38.33-.76.47-1.15.41-.18-.03-.33-.1-.43-.21-.11-.11-.17-.25-.19-.42-.04-.3.04-.63.24-.99.09-.16.2-.32.33-.46.13-.14.27-.27.43-.37.16-.11.34-.17.53-.2.19-.03.39,0,.58.06.27.1.47.25.6.45.05.06.08.13.11.2.02.07.04.15.05.25v.19s.02.1.01.21c0,.48-.07.95-.2,1.42-.13.47-.35.92-.63,1.35-.29.43-.63.77-1.04,1.02-.27.16-.53.25-.76.24-.24,0-.44-.09-.6-.25-.15-.15-.26-.34-.33-.57-.07-.23-.11-.49-.1-.76,0-.04.02-.07.04-.1.03-.03.06-.04.1-.04.04,0,.07.02.1.04.03.03.04.06.04.1ZM114.44,5.89c-.1-.13-.25-.22-.43-.29-.28-.1-.55-.06-.83.11-.28.17-.51.41-.69.73-.17.31-.23.58-.21.82.03.22.16.35.39.38.3.04.61-.07.92-.34.13-.11.28-.29.45-.53.14-.2.28-.5.4-.89Z"/>
                <path class="cls-17" d="M111.94,10.76c-.15-.05-.29-.13-.4-.25-.17-.16-.29-.38-.37-.64-.08-.25-.11-.52-.11-.81,0-.08.03-.15.09-.2.06-.06.13-.08.21-.08.08,0,.15.03.2.09.06.06.08.13.08.21,0,.22.02.43.08.61.06.17.14.3.23.39.13.12.35.25.82-.05.35-.22.66-.51.91-.89.26-.38.45-.79.57-1.21.09-.32.15-.64.17-.96-.01.02-.02.03-.03.05-.2.28-.37.48-.53.61-.41.36-.84.51-1.26.45-.22-.03-.4-.12-.53-.26-.13-.14-.21-.31-.23-.51-.05-.33.04-.69.25-1.09.1-.17.21-.34.35-.49.14-.15.29-.29.46-.4.18-.12.38-.19.59-.22.22-.03.44-.01.65.06.3.11.53.28.68.51.05.07.09.15.12.23.03.08.05.18.06.3v.18s.02.1.01.22c0,.49-.07.98-.21,1.46-.14.48-.36.95-.65,1.39-.3.44-.66.8-1.08,1.06-.3.18-.58.27-.85.26-.11,0-.21-.02-.3-.05ZM111.49,9.08h-.15s0,0,0,0h.15ZM113.93,5.74c-.22-.07-.44-.03-.67.11-.26.15-.47.38-.63.68-.15.28-.21.52-.19.73.02.15.1.22.25.24.26.04.53-.07.8-.3.12-.1.26-.27.42-.5.12-.17.24-.43.35-.76-.08-.08-.18-.14-.31-.18-.01,0-.02,0-.03-.01Z"/>
              </g>
              <g>
                <path class="cls-17" d="M114.76,9.59c-.05.23-.07.46-.05.66.03.21.09.37.18.5.2.29.53.35,1,.17.41-.15.78-.39,1.12-.73.34-.34.62-.71.83-1.12.21-.41.36-.83.45-1.27.03-.15.05-.25.06-.31-.14.21-.28.39-.43.54-.24.23-.44.38-.6.47-.44.25-.84.31-1.2.18-.17-.06-.3-.16-.39-.29-.08-.13-.12-.28-.1-.45.02-.3.16-.61.43-.93.12-.14.26-.27.41-.38.15-.11.32-.21.5-.28.18-.07.36-.1.56-.09.19,0,.38.07.56.17.25.15.41.34.5.56.03.07.05.14.06.22.01.07,0,.16,0,.26l-.02.18s-.02.1-.04.2c-.09.47-.25.92-.48,1.35-.22.43-.52.83-.89,1.2-.37.36-.77.63-1.22.79-.3.11-.57.14-.8.09-.23-.05-.41-.17-.54-.36-.12-.17-.19-.38-.22-.63-.02-.24,0-.5.05-.77,0-.04.03-.07.06-.09.03-.02.07-.03.1-.02.04,0,.07.03.09.06.02.03.03.07.02.1ZM118.28,7.04c-.08-.14-.2-.27-.37-.37-.25-.15-.53-.17-.84-.05-.31.11-.58.31-.82.58-.22.27-.34.53-.36.77-.01.23.09.38.31.45.29.1.61.05.97-.15.15-.08.33-.23.55-.43.18-.17.37-.43.57-.8Z"/>
                <path class="cls-17" d="M115.02,11.39c-.21-.07-.37-.2-.5-.39-.13-.19-.21-.43-.24-.7-.03-.26,0-.54.05-.82.02-.08.06-.14.13-.18.07-.04.14-.06.22-.04.08.02.14.06.18.13.04.07.06.14.04.22-.05.22-.06.42-.04.62.02.18.08.32.15.43.1.15.29.32.82.12.39-.14.75-.38,1.07-.69.33-.32.6-.68.8-1.08.15-.29.27-.59.36-.9-.01.01-.03.03-.04.04-.25.23-.46.4-.64.5-.47.27-.92.33-1.33.19-.21-.07-.37-.19-.47-.36-.1-.16-.14-.34-.12-.54.02-.33.18-.67.46-1.01.13-.15.28-.29.44-.41.16-.12.34-.22.53-.3.2-.08.41-.11.62-.1.22.01.43.08.63.19.28.17.47.38.57.63.04.08.06.16.07.25.01.09.01.19,0,.3l-.02.18s-.02.1-.04.22c-.1.48-.26.95-.49,1.39-.23.45-.54.86-.91,1.24-.38.38-.81.66-1.27.83-.33.12-.62.15-.88.09-.05-.01-.09-.02-.14-.04ZM114.76,9.59l-.15-.03s0,0,0,0l.15.03ZM117.7,6.74c-.17-.06-.36-.05-.57.02-.28.1-.53.28-.76.54-.2.24-.31.47-.33.68,0,.15.05.24.2.29.24.08.53.04.85-.14.14-.08.31-.21.51-.41.15-.15.32-.37.5-.68-.06-.09-.15-.17-.27-.24-.05-.03-.09-.05-.14-.07Z"/>
              </g>
              <g>
                <path class="cls-17" d="M119.45,7.92s0-.07.03-.1c.02-.03.13-.17.31-.43l.19-.27.04-.05.03-.04.02-.03h0s0-.01,0-.01h0s0-.01,0-.01c.01,0,.02-.01.04-.02.03-.02.08-.03.13-.02.02,0,.04.01.07.03.04.02.09.04.15.07.1.05.22.13.38.24.11.07.2.13.27.18.07.05.14.1.22.16l.13.09s.09.06.22.14c.13.09.25.16.34.22.14.09.25.17.32.23.05.04.08.08.11.11.02.03.03.05.04.08.02.05.01.1,0,.14-.02.03-.05.07-.11.11-.04.03-.09.07-.16.11-.11.07-.26.16-.46.27l-.32.18-.3.16c-.07.04-.13.07-.15.08-.56.34-1.1.74-1.62,1.21-.51.46-.86.92-1.05,1.37-.02.04-.05.06-.08.08-.03.01-.07.01-.11,0-.04-.02-.06-.04-.08-.08-.01-.03-.02-.07,0-.11.21-.49.58-.98,1.11-1.46.54-.48,1.1-.9,1.67-1.24.03-.02.08-.05.16-.1l.3-.16c.12-.07.23-.13.32-.18.19-.1.34-.19.45-.25l.12-.08h-.02c-.06-.07-.16-.14-.29-.22-.09-.06-.2-.13-.33-.22-.14-.09-.21-.14-.22-.14l-.13-.09c-.08-.05-.15-.11-.22-.16-.07-.05-.16-.11-.26-.18-.16-.11-.28-.18-.37-.24-.03-.02-.05-.03-.08-.04l-.03.04-.19.27c-.19.27-.3.42-.33.46-.03.03-.06.05-.1.05s-.07-.01-.1-.04c-.03-.03-.05-.06-.05-.1Z"/>
                <path class="cls-17" d="M118.09,12.34s-.03,0-.04-.01c-.07-.03-.13-.09-.16-.16-.03-.07-.03-.14,0-.21.22-.52.61-1.03,1.16-1.53.54-.49,1.11-.91,1.7-1.26.01-.01.07-.05.17-.1l.3-.16c.12-.07.22-.13.31-.18.16-.08.28-.15.38-.21-.04-.03-.08-.05-.12-.08-.09-.06-.2-.13-.33-.22-.14-.09-.21-.14-.23-.15l-.13-.09c-.08-.05-.15-.11-.22-.16-.07-.05-.15-.11-.25-.17-.13-.09-.23-.16-.32-.2l-.13.19c-.25.35-.31.44-.34.47-.06.06-.13.1-.21.1-.08,0-.15-.02-.21-.08-.06-.05-.09-.13-.1-.21,0-.08.02-.15.07-.21,0,0,.06-.07.3-.42l.25-.36.15.06-.13-.09.06-.06c.1-.06.18-.07.26-.06.04,0,.07.02.1.04.04.01.09.04.16.08.1.05.23.14.39.25.11.07.2.13.27.18.07.05.14.1.22.15l.13.09s.09.06.22.14c.14.09.25.16.34.22.14.09.25.17.33.24.06.05.1.1.12.13.03.05.06.09.07.13.03.09.02.18-.02.26-.03.06-.08.11-.16.17-.04.03-.09.07-.16.11-.11.07-.27.16-.47.27l-.62.34c-.08.04-.13.08-.16.09-.54.33-1.07.73-1.58,1.18-.5.45-.83.89-1.01,1.32-.04.08-.1.13-.17.16-.06.02-.12.03-.19,0ZM122.36,8.47h.02s.06-.06.06-.06l-.08.06Z"/>
              </g>
            </g>
            <g>
              <path class="cls-20" d="M92.76,12.84c-.18.03-.31.02-.4-.03-.09-.05-.15-.15-.19-.31-.1-.44-.19-.99-.26-1.66s-.12-1.32-.14-1.96c0-.12.04-.21.11-.28.08-.07.19-.13.34-.17.27-.08.42-.05.47.1.02.06.03.13.02.22,0,.38.02.88.08,1.5s.15,1.2.26,1.75c.13-.03.28-.06.45-.11.76-.23,1.26-.63,1.5-1.2.24-.57.24-1.25.01-2.02-.15-.52-.42-.87-.8-1.07-.38-.19-.84-.21-1.38-.05-.35.1-.68.26-.99.47-.31.21-.57.45-.8.71-.04.06-.1.09-.16.11-.07.02-.14,0-.2-.04-.06-.05-.11-.12-.13-.21-.03-.1-.04-.2-.02-.27.01-.08.05-.16.12-.24.24-.29.55-.56.92-.78s.75-.4,1.12-.51c.53-.16,1.02-.2,1.46-.14.44.07.82.25,1.14.55.32.29.55.69.7,1.2.2.66.24,1.27.12,1.84-.11.57-.38,1.06-.8,1.48s-.98.73-1.67.94c-.25.08-.54.14-.88.19Z"/>
              <path class="cls-20" d="M100.15,9.59s.08.12.1.21c.04.18.02.33-.04.44-.12.23-.32.47-.58.7-.27.23-.57.38-.91.45-.47.1-.86.04-1.17-.16-.31-.2-.51-.52-.6-.96-.06-.31-.06-.61.02-.9.07-.29.21-.54.41-.74.2-.2.44-.33.73-.39.26-.05.48-.02.67.1.19.12.31.31.36.58.06.31,0,.59-.17.86-.17.27-.51.52-1.01.75.15.18.39.24.7.18.2-.04.41-.16.64-.35.23-.19.41-.42.55-.69.04-.07.09-.12.16-.13.06-.01.11,0,.15.05ZM97.75,9.29c-.07.22-.08.46-.03.73h0c.25-.1.44-.24.56-.39.13-.16.17-.32.14-.48-.02-.08-.05-.15-.11-.19-.06-.04-.13-.05-.21-.04-.16.03-.28.16-.36.37Z"/>
              <path class="cls-20" d="M100.62,11.02c-.14-.09-.22-.2-.25-.33-.02-.12,0-.22.08-.32.07-.1.19-.16.36-.19.06,0,.13-.02.21-.02.08,0,.14,0,.18,0-.02-.12-.07-.22-.13-.32-.06-.1-.14-.18-.23-.27-.09-.08-.17-.16-.24-.22-.09.29-.2.53-.3.73-.11.2-.23.39-.36.57-.07.09-.15.15-.24.16-.07.01-.13,0-.19-.05-.05-.04-.09-.1-.1-.18-.01-.09,0-.18.05-.26l.07-.12c.2-.35.34-.63.43-.85.05-.14.11-.33.18-.57s.13-.48.19-.73c.05-.21.21-.34.48-.39.13-.02.21-.02.27-.01.05.01.08.05.09.1,0,.03,0,.07,0,.13s-.02.12-.04.19c-.05.17-.07.32-.05.43.01.07.05.14.11.21.06.07.15.16.27.27.18.16.31.31.41.43.1.12.16.26.18.42,0,.04.01.11.02.19.21-.12.43-.39.66-.81.04-.07.1-.11.17-.12.06,0,.11,0,.15.06.04.05.07.12.09.21.03.17,0,.32-.06.44-.18.32-.36.54-.55.68-.19.14-.43.23-.73.29-.15.18-.35.29-.6.34-.23.04-.42.02-.56-.07Z"/>
              <path class="cls-20" d="M106.54,8.72s.07.12.08.22c.02.18,0,.33-.08.44-.16.25-.34.47-.54.65-.2.19-.41.29-.63.32-.34.04-.63-.13-.86-.51-.16.26-.31.44-.44.54s-.29.16-.48.18c-.28.03-.52-.04-.72-.22-.2-.18-.33-.44-.37-.77-.04-.36,0-.71.11-1.03.11-.33.29-.61.54-.84s.53-.38.86-.46c-.02-.89.05-1.65.21-2.3s.44-1,.84-1.05c.19-.02.37.04.52.2s.25.42.29.77c.06.51.01,1.11-.15,1.82-.16.71-.41,1.44-.74,2.21.05.26.11.44.19.55.07.11.16.15.25.14.12-.01.24-.08.35-.21.11-.12.26-.33.44-.6.05-.07.1-.11.17-.12.06,0,.11.01.15.06ZM103.99,9.72c.08-.08.17-.22.28-.43-.07-.24-.13-.51-.17-.81-.01-.11-.03-.29-.05-.53-.24.11-.42.3-.56.57-.13.28-.18.57-.14.88.04.33.17.48.4.45.09-.01.17-.06.24-.14ZM104.87,5.06c-.05.32-.07.72-.07,1.22,0,.5.02,1.02.06,1.56.37-1.16.51-2.08.43-2.75-.02-.17-.05-.3-.09-.39-.04-.09-.08-.13-.12-.13-.09.01-.15.17-.2.49Z"/>
              <path class="cls-20" d="M108.64,8.9c.04.05.06.13.06.22,0,.16-.03.31-.1.43-.12.2-.28.36-.48.48-.2.12-.45.18-.73.19-.44.02-.78-.1-1.03-.35-.25-.25-.38-.6-.4-1.05-.01-.31.04-.61.17-.88.12-.28.3-.5.53-.66.23-.17.49-.26.78-.27.26,0,.48.06.64.21.16.15.25.36.26.63.01.31-.09.59-.31.82-.22.23-.59.43-1.13.58.12.21.3.3.56.29.19,0,.34-.06.46-.15s.25-.24.4-.45c.05-.07.11-.11.18-.11.06,0,.11.02.14.08ZM106.92,7.99c-.11.2-.16.44-.15.72h0c.27-.06.47-.16.62-.3s.22-.28.22-.45c0-.09-.03-.15-.08-.21-.05-.05-.12-.07-.2-.07-.17,0-.31.11-.42.31Z"/>
            </g>
          </g>
        </g>
      </g>
    </g>
  </g>
</svg>