<svg width="195" height="184" viewBox="0 0 195 184" fill="none" xmlns="http://www.w3.org/2000/svg">
<g clip-path="url(#clip0_30_10)">
<path d="M194.895 70.2138C194.714 69.3011 194.113 68.5676 193.482 68.0297C193.512 67.6222 193.361 67.8015 193.361 67.72C193.316 67.6874 193.286 67.6711 193.256 67.6548L193.046 67.557L192.625 67.394C192.069 67.1821 191.512 67.0028 190.956 66.8072L187.619 65.7315C183.154 64.3297 178.675 63.0257 174.21 61.6729C165.266 58.9998 156.307 56.3592 147.347 53.7676C156.292 56.4244 165.236 59.0976 174.165 61.8196C178.63 63.1724 183.079 64.5905 187.529 66.0412L190.851 67.1658C191.407 67.3614 191.948 67.557 192.49 67.7689L192.685 67.8504H192.46C190.16 67.8993 187.83 67.7689 185.515 67.6711C180.885 67.4592 176.255 67.1495 171.625 66.8235C166.995 66.4486 162.335 66.3508 157.69 66.3834C153.045 66.4323 148.4 66.5953 143.755 66.8561L142.011 66.9539C141.38 67.0028 140.763 67.1169 140.177 67.2473C138.989 67.5244 137.862 67.9319 136.75 68.3557C134.525 69.2033 132.375 70.1649 130.225 71.094C121.672 74.8755 112.893 78.0865 103.799 79.0645C99.2738 79.5861 94.704 79.5535 90.2093 78.9504C85.7747 78.3799 81.4604 76.7825 77.1913 75.0222C68.6829 71.3874 60.5053 66.6605 52.4329 61.8196L46.3899 58.1359C46.2997 58.087 41.8952 55.365 40.2417 54.4359C39.0992 53.7839 12.8527 47.0685 12.8527 47.0685C11.6952 46.7914 11.8756 44.9333 13.0631 44.9333L31.2072 44.0531L45.1122 43.7434L57.3034 44.1183C57.6191 44.0857 57.8446 44.0205 58.1001 43.9227C58.5962 43.7108 59.0321 43.3359 59.3328 42.8632C59.4831 42.6188 59.6034 42.358 59.6785 42.0972C59.7236 41.9668 59.7537 41.8038 59.7687 41.6897L59.7988 41.4615L59.9491 40.5487L60.2498 38.7069C60.4602 37.4844 60.6857 36.2619 60.9262 35.0395C61.4073 32.5946 61.9484 30.1822 62.5648 27.7862C63.7523 23.0104 65.6314 18.4955 68.0365 14.3065C70.2613 10.0686 74.2148 7.37921 78.4089 5.52106C82.633 3.69552 87.1728 2.65235 91.7276 2.03297C96.2974 1.44618 100.927 1.16909 105.512 1.60918C107.812 1.77217 110.082 2.21226 112.337 2.71755C114.577 3.28803 116.787 4.02151 118.921 4.96688C123.175 6.87392 127.144 9.59594 130.451 13.084C133.743 16.5721 136.509 20.7611 138.102 25.4717C138.478 26.6615 138.824 27.8677 138.809 29.1228C138.899 30.3778 139.11 31.6166 139.32 32.8553C139.741 35.3329 140.252 37.7778 140.763 40.239C141.289 42.684 141.83 45.1289 142.387 47.5738C142.537 48.1769 142.642 48.7963 142.853 49.3831C143.063 49.9698 143.349 50.524 143.679 51.0456C144.356 52.0562 145.288 52.8712 146.325 53.3927C146.28 53.3927 146.235 53.3927 146.19 53.3927H146.115C146.115 53.3927 146.145 53.3927 146.16 53.3927C146.145 53.3927 146.13 53.3927 146.115 53.3927L146.355 53.4253C146.671 53.572 146.987 53.7187 147.317 53.8165C146.987 53.7187 146.671 53.5883 146.37 53.4253H146.355C145.303 52.8875 144.371 52.0725 143.71 51.0619C143.379 50.5566 143.093 50.0024 142.898 49.4157C142.687 48.8289 142.582 48.2095 142.432 47.6064C141.891 45.1615 141.349 42.7166 140.838 40.2716C140.327 37.8104 139.831 35.3655 139.425 32.8879C139.23 31.6492 139.019 30.4104 138.929 29.1554C138.944 27.884 138.614 26.6452 138.238 25.4554C136.644 20.7122 133.954 16.4417 130.661 12.8721C127.354 9.30255 123.401 6.48273 119.102 4.47789C116.952 3.49992 114.727 2.70125 112.472 2.06556C110.202 1.49508 107.902 1.0061 105.572 0.777903C100.927 0.20742 96.2222 0.370415 91.5772 0.859401C86.9322 1.38099 82.2872 2.29376 77.8527 4.0867C75.6429 4.99948 73.4783 6.12414 71.509 7.6237C70.5319 8.37348 69.5849 9.22105 68.7431 10.1664C67.8862 11.0955 67.1647 12.2528 66.5183 13.2633C63.9177 17.5338 61.8582 22.2444 60.5203 27.1505C59.8289 29.5791 59.2276 32.0404 58.6864 34.5016C58.4158 35.7404 58.1603 36.9791 57.9197 38.2179L57.574 40.076L57.4086 41.0051L57.3635 41.2333C57.3635 41.2333 57.3636 41.2659 57.3485 41.2822C57.3485 41.3148 57.3335 41.3311 57.3185 41.3474C57.2884 41.3963 57.2433 41.4289 57.1982 41.4452C57.1982 41.4452 57.123 41.4452 57.1531 41.4452L44.9769 40.7606H31.0569L9.75601 41.5267H6.28353L3.24699 41.5756H3.03654C3.03654 41.5756 2.75093 41.6082 2.61563 41.6245C1.99931 41.7386 1.39801 42.032 0.932008 42.5373C0.466004 43.0425 0.180389 43.6619 0.0601296 44.2976C-0.0601294 44.9333 -0.0150323 45.6016 0.210453 46.2372C0.435939 46.8729 0.856846 47.4597 1.39801 47.8509C1.92414 48.2421 2.61563 48.3725 2.76596 48.4214L3.60777 48.6333L5.30643 49.0571L12.1011 50.7196C16.6258 51.8117 34.7849 56.4733 35.8222 56.7015C36.8744 56.9297 37.7764 57.2557 38.6783 57.761C40.2266 58.6249 41.805 59.5865 43.3834 60.5482C43.0377 61.4121 42.722 62.2923 42.4364 63.1724L42.1658 64.0526L42.0305 64.4927C42.0305 64.4927 42.0005 64.5905 42.0005 64.5742C42.0005 64.5742 42.0005 64.5742 42.0005 64.5579C41.8501 64.7209 41.309 64.9491 40.8279 65.0795C39.8208 65.3566 38.7234 65.5359 37.6411 65.6989C36.5437 65.8619 35.4313 66.0086 34.3039 66.2367C33.7327 66.3508 33.1765 66.4649 32.5752 66.6605C31.9438 66.8724 31.4177 67.1821 30.8915 67.4918C28.8321 68.7795 27.1485 70.4746 25.525 72.1698C23.9015 73.8812 22.3982 75.6579 20.8649 77.4182L18.58 80.0261C17.8134 80.9226 17.0016 81.8354 16.2951 82.8297C14.867 84.8019 13.6344 86.9697 12.7625 89.3332C12.3265 90.5067 11.9658 91.7292 11.7102 92.9843C11.59 93.6199 11.4847 94.2556 11.4096 94.8913C11.3344 95.5596 11.3043 96.1464 11.3344 96.945V97.0102L11.3645 97.108C11.62 98.2979 11.8605 99.39 12.3265 100.629C12.4017 100.792 12.4618 100.955 12.5671 101.15C12.6573 101.313 12.8377 101.607 12.988 101.753C13.0481 101.819 13.0932 101.851 13.1533 101.9C13.6945 101.656 14.2808 101.493 14.837 101.297C15.5284 101.053 16.2199 100.727 16.9565 100.743C16.7912 100.645 16.6258 100.58 16.4905 100.515C15.8592 100.27 15.333 100.156 15.0324 100.009C14.8821 99.9441 14.7919 99.8789 14.7618 99.8463C14.7317 99.8138 14.7618 99.8463 14.7167 99.7812C14.6866 99.7322 14.6415 99.6345 14.5964 99.5367C14.2507 98.7054 13.9801 97.6296 13.7396 96.619C13.7246 96.2116 13.7396 95.6411 13.7847 95.1358C13.8298 94.5816 13.9049 94.0274 14.0102 93.4732C14.2206 92.3649 14.5062 91.2728 14.8821 90.2133C15.6337 88.0781 16.716 86.0733 17.9938 84.2151C18.6251 83.2697 19.3467 82.4385 20.0833 81.542L22.3381 78.8526C23.8263 77.0596 25.2995 75.2504 26.8328 73.5552C28.3661 71.8764 29.9595 70.2301 31.7484 69.0566C32.1994 68.7795 32.6503 68.5024 33.0863 68.3557C33.5523 68.1927 34.0784 68.0623 34.6045 67.9482C35.6718 67.72 36.7692 67.5407 37.8666 67.3451C38.979 67.1495 40.0763 66.9539 41.2188 66.6116C41.5044 66.5301 41.79 66.416 42.0907 66.2857C42.3913 66.139 42.707 65.976 43.0377 65.6174C43.1129 65.5033 43.2031 65.4055 43.2632 65.2588C43.2932 65.1773 43.3233 65.1121 43.3534 65.0306C43.3834 64.9491 43.3834 64.9491 43.3985 64.9002L43.5187 64.4764L43.7593 63.6288C43.9998 62.8139 44.2703 62.0152 44.571 61.2328C44.6161 61.2654 44.6612 61.2817 44.6913 61.3143L50.7794 64.998C58.957 69.8226 67.2849 74.4354 76.0939 78.0539C80.4984 79.8142 85.0833 81.3627 89.8936 81.868C94.6138 82.3896 99.3791 82.2918 104.069 81.6398C113.479 80.3847 122.394 76.8314 130.902 72.8218C133.037 71.8438 135.156 70.8332 137.291 69.953C138.358 69.5293 139.44 69.1055 140.508 68.8284C141.034 68.698 141.545 68.6002 142.071 68.535C142.071 69.3174 142.056 70.0997 142.026 70.8984C141.951 73.6041 141.815 76.2935 141.635 78.983C141.83 80.9715 142.011 82.9927 141.906 84.9975C141.846 85.4702 141.846 86.0407 141.515 86.3666C141.44 86.4318 141.349 86.4807 141.259 86.5459C141.214 86.5622 137.546 87.9803 137.576 88.0129C137.381 88.0944 137.185 88.1922 137.005 88.3063C136.96 88.3389 136.9 88.3878 136.855 88.4367C136.795 88.5019 136.795 88.5997 136.795 88.6486C136.795 88.779 136.795 88.9094 136.795 89.0398C136.825 89.5451 136.9 90.0503 136.96 90.5393C137.095 91.5336 137.261 92.5279 137.426 93.5221C137.772 95.4944 138.087 97.4829 138.493 99.4552C138.854 101.427 139.155 103.416 139.305 105.404C139.38 106.399 139.425 107.409 139.38 108.404C139.32 109.382 139.245 110.408 138.839 111.256C138.448 112.12 137.486 112.381 136.614 112.56C135.712 112.723 134.795 112.788 133.878 112.788C132.044 112.788 130.18 112.625 128.361 112.348L128.061 112.299L128.106 112.641C128.256 113.913 128.331 115.217 128.346 116.504C128.346 117.792 128.301 119.096 128.031 120.319C127.956 120.612 127.88 120.922 127.76 121.199L127.685 121.411C127.655 121.492 127.685 121.411 127.64 121.476C127.58 121.508 127.46 121.557 127.339 121.574C126.813 121.655 126.212 121.606 125.626 121.557C124.453 121.427 123.265 121.199 122.108 120.938L121.432 120.775L121.687 121.492C122.213 122.926 122.709 124.459 122.86 125.942C122.86 126.3 122.89 126.675 122.799 126.952C122.739 127.181 122.544 127.425 122.318 127.523C122.078 127.653 121.747 127.686 121.356 127.767C120.981 127.849 120.469 128.045 120.154 128.452C120.003 128.599 119.838 128.957 119.793 129.153C119.733 129.381 119.688 129.577 119.643 129.789C119.568 130.196 119.507 130.604 119.447 130.995L119.132 133.374C118.936 134.956 118.741 136.52 118.455 138.052C118.305 138.818 118.139 139.568 117.869 140.188C117.568 140.84 117.162 141.475 116.741 142.062C116.321 142.633 115.794 143.203 115.328 143.431C114.892 143.643 114.141 143.627 113.464 143.562C110.668 143.252 107.872 142.225 105.076 141.28C102.28 140.318 99.4843 139.324 96.6131 138.476C95.8915 138.264 95.17 138.069 94.3733 137.922C94.1628 137.889 93.9824 137.857 93.7269 137.841C93.6216 137.841 93.4563 137.841 93.306 137.841C93.2458 137.841 93.0655 137.889 92.9452 137.938L92.855 137.987C92.855 137.987 92.7347 138.069 92.6746 138.134C92.5543 138.232 92.4491 138.395 92.404 138.509C92.3439 138.672 92.2988 138.851 92.2687 139.03C92.2387 139.193 92.2387 139.259 92.2236 139.389C92.1936 139.617 92.1785 139.829 92.1635 140.041C92.0583 141.687 92.0583 143.285 92.0432 144.882L92.1034 154.45L92.0132 163.985V164.181L92.0733 164.392L93.1857 167.946H92.9452C92.9452 167.946 93.0204 168.125 93.0504 168.207C93.9524 168.239 94.8693 168.239 95.7713 168.223L94.268 163.74L94.1778 154.401L93.9373 144.866C93.9223 143.285 93.8922 141.687 93.9524 140.155C93.9524 140.008 93.9674 139.878 93.9824 139.748C94.0425 139.748 94.0876 139.748 94.1478 139.764C94.8092 139.862 95.5157 140.041 96.2223 140.22C99.0333 140.986 101.844 141.915 104.67 142.812C107.497 143.692 110.323 144.686 113.389 144.947C114.171 144.98 114.953 145.061 115.87 144.637C116.726 144.148 117.207 143.496 117.704 142.828C118.185 142.16 118.59 141.459 118.936 140.677C119.282 139.845 119.432 139.03 119.583 138.232C119.838 136.634 120.003 135.037 120.169 133.456L120.424 131.093C120.469 130.701 120.53 130.31 120.59 129.935C120.62 129.74 120.665 129.56 120.695 129.414C120.74 129.234 120.755 129.218 120.845 129.071C121.011 128.876 121.221 128.762 121.567 128.68C121.883 128.599 122.303 128.55 122.724 128.322C123.16 128.093 123.506 127.686 123.641 127.148C123.777 126.643 123.731 126.219 123.701 125.779C123.521 124.345 123.115 123.057 122.634 121.769C123.611 121.948 124.588 122.111 125.58 122.209C126.197 122.258 126.798 122.291 127.46 122.177C127.625 122.128 127.805 122.095 128.001 121.948C128.046 121.9 128.106 121.867 128.151 121.802C128.196 121.737 128.241 121.655 128.241 121.639L128.331 121.394C128.467 121.068 128.527 120.742 128.602 120.416C128.843 119.096 128.888 117.76 128.873 116.456C128.843 115.249 128.752 114.043 128.617 112.853C130.376 113.082 132.135 113.196 133.908 113.179C134.84 113.179 135.787 113.098 136.719 112.919C137.185 112.821 137.651 112.707 138.087 112.462C138.553 112.283 138.929 111.843 139.155 111.386C139.591 110.425 139.651 109.382 139.696 108.371C139.726 107.36 139.666 106.35 139.576 105.339C139.395 103.334 139.08 101.346 138.689 99.3737C138.268 97.4177 137.922 95.4292 137.576 93.4569C137.411 92.4627 137.246 91.4847 137.11 90.4904C137.065 89.5777 136.494 88.2574 137.697 88.0781C137.802 88.1759 137.892 88.29 137.997 88.3878C140.718 91.0609 143.649 93.408 146.671 95.5596C148.204 96.6027 149.722 97.6459 151.316 98.575L152.488 99.2922C152.879 99.5367 153.27 99.7648 153.721 99.993C154.593 100.482 155.51 100.841 156.442 101.167C160.215 102.389 164.229 102.014 167.776 100.808C174.932 98.2979 180.779 93.2939 185.74 87.6706C188.19 84.8182 190.46 81.7702 192.219 78.3147C192.655 77.4182 193.001 76.5706 193.422 75.7394C193.843 74.8918 194.278 74.0279 194.609 73.0988C194.925 72.1861 195.12 71.1266 194.895 70.1486V70.2138Z" fill="white"/>
<path d="M73.1626 134.825C73.1626 134.825 73.0273 134.776 72.9521 134.76C72.1254 140.057 69.4346 144.914 65.0752 148.028C62.0236 150.228 58.5511 151.271 55.0937 151.271C53.6205 151.271 52.1624 151.059 50.7343 150.701C50.7343 150.782 50.7192 150.864 50.7042 150.945C50.1931 153.977 49.0958 156.732 47.5023 159.128L79.6716 182.094C83.6101 184.408 85.8349 183.789 88.5557 181.8C93.1556 178.443 92.2236 173.08 92.2236 173.08L83.2643 134.222C81.3552 134.939 79.371 135.347 77.3266 135.347C75.9436 135.347 74.5456 135.184 73.1626 134.841V134.825Z" fill="white"/>
<path d="M21.4662 128.941C25.8106 125.811 30.9968 125.029 35.8071 126.268C35.8071 126.186 35.8222 126.105 35.8372 126.023C36.7391 120.595 39.5352 115.966 43.6841 112.984C48.0285 109.854 53.2146 109.072 58.025 110.311C58.025 110.229 58.04 110.148 58.055 110.066C58.957 104.638 61.753 100.009 65.902 97.0264C67.9915 95.5269 70.2914 94.5489 72.6816 94.0762C72.6064 93.9458 72.5312 93.7991 72.4561 93.6687C70.4718 90.4088 68.1117 87.5727 65.4961 85.193L76.5749 71.8111C80.4232 67.1657 78.1383 59.7168 72.4861 58.5107L46.9161 55.7886C40.2567 55.0878 35.4614 62.5366 38.3626 69.0727L41.5796 76.326C35.8673 76.6194 30.2151 78.4776 25.1642 82.0961C9.71092 93.1797 5.8476 116.358 16.5206 133.831C16.5657 133.912 16.6258 133.977 16.6709 134.043C17.9336 132.07 19.5271 130.31 21.4813 128.925L21.4662 128.941Z" fill="white"/>
<path d="M89.6982 105.095C85.1434 97.6296 76.1089 95.4291 69.5248 100.156C65.4359 103.09 63.2563 108.012 63.2713 113.098C65.917 114.32 68.2921 116.39 70.0058 119.226C71.7345 122.063 72.5613 125.241 72.5763 128.354C76.8906 130.359 81.9265 130.098 86.0153 127.164C92.5995 122.437 94.253 112.544 89.6982 105.095Z" fill="white"/>
<path d="M67.766 121.085C66.0372 118.248 63.6621 116.178 61.0314 114.956C56.7172 112.951 51.6813 113.212 47.5925 116.146C43.5037 119.08 41.324 124.002 41.339 129.088C43.9847 130.31 46.3448 132.38 48.0735 135.216C49.8023 138.052 50.629 141.214 50.6441 144.328C54.9584 146.332 59.9942 146.072 64.083 143.138C68.1718 140.204 70.3515 135.281 70.3365 130.18C70.3365 127.066 69.4947 123.888 67.766 121.052V121.085Z" fill="white"/>
<path d="M44.12 138.786C42.3913 135.95 40.0162 133.88 37.3855 132.657C33.0712 130.652 28.0354 130.913 23.9466 133.847C17.3624 138.574 15.7088 148.452 20.2636 155.917C24.8185 163.382 33.8529 165.582 40.4371 160.855C44.5259 157.922 46.7056 152.999 46.6906 147.897C46.6906 144.784 45.8488 141.606 44.12 138.786Z" fill="white"/>
</g>
<defs>
<clipPath id="clip0_30_10">
<rect width="195" height="183.207" fill="white" transform="translate(0 0.353882)"/>
</clipPath>
</defs>
</svg>
